<svg width="174" height="19" viewBox="0 0 174 19" fill="none" xmlns="http://www.w3.org/2000/svg">
<path d="M9.056 18.336C6.496 18.32 4.416 17.512 2.816 15.912C1.232 14.312 0.44 12.208 0.44 9.6C0.44 6.992 1.232 4.888 2.816 3.288C4.416 1.672 6.496 0.863999 9.056 0.863999C11.264 0.863999 13.208 1.408 14.888 2.496L15.368 5.88H15.152C14.8 4.504 14.088 3.448 13.016 2.712C11.96 1.96 10.64 1.584 9.056 1.584C7.024 1.584 5.376 2.32 4.112 3.792C2.864 5.264 2.24 7.2 2.24 9.6C2.24 12 2.864 13.936 4.112 15.408C5.376 16.864 7.024 17.6 9.056 17.616C10.096 17.616 11.08 17.432 12.008 17.064C12.952 16.696 13.776 16.184 14.48 15.528V11.28C14.48 10.928 14.368 10.664 14.144 10.488C13.936 10.296 13.64 10.2 13.256 10.2H12.872V9.96H17.576V10.2H17.216C16.816 10.2 16.512 10.296 16.304 10.488C16.096 10.664 16 10.928 16.016 11.28V15.24C15.6 15.784 15.104 16.272 14.528 16.704C13.952 17.136 13.176 17.52 12.2 17.856C11.24 18.176 10.192 18.336 9.056 18.336ZM34.1084 3.84H33.7484C33.3164 3.84 32.9884 4.008 32.7644 4.344C32.6684 4.488 32.6124 4.656 32.5964 4.848V12.936C32.5964 14.6 32.0604 15.92 30.9884 16.896C29.9324 17.856 28.4764 18.336 26.6204 18.336C24.7644 18.336 23.3004 17.856 22.2284 16.896C21.1564 15.936 20.6204 14.624 20.6204 12.96V4.872C20.6204 4.584 20.5084 4.344 20.2844 4.152C20.0604 3.944 19.7884 3.84 19.4684 3.84H19.1084V3.6H23.6684V3.84H23.3084C22.9884 3.84 22.7164 3.944 22.4924 4.152C22.2684 4.344 22.1564 4.584 22.1564 4.872V12.672C22.1564 14.224 22.5484 15.448 23.3324 16.344C24.1324 17.24 25.2524 17.688 26.6924 17.688C28.1484 17.688 29.3084 17.264 30.1724 16.416C31.0524 15.568 31.4924 14.408 31.4924 12.936V4.872C31.4764 4.568 31.3564 4.32 31.1324 4.128C30.9244 3.936 30.6604 3.84 30.3404 3.84H29.9804V3.6H34.1084V3.84ZM49.9494 17.76H50.1414V18H45.2214V17.76H45.4134C45.7174 17.76 45.9494 17.656 46.1094 17.448C46.2694 17.24 46.3494 17.048 46.3494 16.872C46.3494 16.68 46.3174 16.496 46.2534 16.32L44.9334 13.128H38.8614L37.5414 16.248C37.4614 16.456 37.4214 16.656 37.4214 16.848C37.4214 17.024 37.5014 17.224 37.6614 17.448C37.8214 17.656 38.0614 17.76 38.3814 17.76H38.5734V18H33.9894V17.76H34.1814C34.5174 17.76 34.8534 17.648 35.1894 17.424C35.5414 17.184 35.8294 16.832 36.0534 16.368C39.5574 8.88 41.3814 4.96 41.5254 4.608C41.7974 3.936 41.9414 3.488 41.9574 3.264H42.1734L48.1014 16.368C48.5654 17.296 49.1814 17.76 49.9494 17.76ZM39.1734 12.408H44.6454L41.9574 5.832L39.1734 12.408ZM63.3472 3.84H63.0592C62.6272 3.84 62.2112 3.96 61.8112 4.2C61.4272 4.424 61.1072 4.712 60.8512 5.064L56.2432 12.048V16.464C56.2432 16.816 56.3792 17.12 56.6512 17.376C56.9232 17.632 57.2512 17.76 57.6352 17.76H57.9232V18H53.0032V17.76H53.2912C53.6752 17.76 54.0032 17.632 54.2752 17.376C54.5472 17.12 54.6832 16.816 54.6832 16.464V12.024L50.2432 5.04C49.6992 4.24 48.9632 3.84 48.0352 3.84H47.7472V3.6H53.3152V3.84H53.0272C52.7232 3.84 52.4992 3.936 52.3552 4.128C52.2272 4.32 52.1632 4.488 52.1632 4.632C52.1632 4.76 52.1792 4.88 52.2112 4.992L55.7152 11.208L59.4352 5.016C59.4832 4.888 59.5072 4.76 59.5072 4.632C59.5072 4.488 59.4352 4.32 59.2912 4.128C59.1632 3.936 58.9392 3.84 58.6192 3.84H58.3312V3.6H63.3472V3.84ZM76.9025 17.76H77.0945V18H72.1745V17.76H72.3665C72.6705 17.76 72.9025 17.656 73.0625 17.448C73.2225 17.24 73.3025 17.048 73.3025 16.872C73.3025 16.68 73.2705 16.496 73.2065 16.32L71.8865 13.128H65.8145L64.4945 16.248C64.4145 16.456 64.3745 16.656 64.3745 16.848C64.3745 17.024 64.4545 17.224 64.6145 17.448C64.7745 17.656 65.0145 17.76 65.3345 17.76H65.5265V18H60.9425V17.76H61.1345C61.4705 17.76 61.8065 17.648 62.1425 17.424C62.4945 17.184 62.7825 16.832 63.0065 16.368C66.5105 8.88 68.3345 4.96 68.4785 4.608C68.7505 3.936 68.8945 3.488 68.9105 3.264H69.1265L75.0545 16.368C75.5185 17.296 76.1345 17.76 76.9025 17.76ZM66.1265 12.408H71.5985L68.9105 5.832L66.1265 12.408ZM87.8246 5.592C88.0646 6.056 88.1846 6.616 88.1846 7.272C88.1846 7.928 87.9206 8.536 87.3926 9.096C86.8646 9.64 86.2486 10 85.5446 10.176C86.7126 10.304 87.6726 10.728 88.4246 11.448C89.1926 12.168 89.5766 12.96 89.5766 13.824C89.5766 14.672 89.4086 15.368 89.0726 15.912C88.7526 16.456 88.3206 16.872 87.7766 17.16C86.7366 17.72 85.5606 18 84.2486 18H78.2966V17.76H78.5846C78.9846 17.76 79.3206 17.64 79.5926 17.4C79.8646 17.144 80.0086 16.832 80.0246 16.464V5.136C80.0086 4.608 79.7686 4.232 79.3046 4.008C79.0966 3.896 78.8566 3.84 78.5846 3.84H78.2966V3.6H83.1926C85.5766 3.6 87.1206 4.264 87.8246 5.592ZM87.8726 13.968C87.8726 11.584 86.0086 10.392 82.2806 10.392V10.152C85.0966 10.152 86.5046 9.168 86.5046 7.2C86.5046 5.28 85.3926 4.32 83.1686 4.32H81.5366V17.28H84.2246C85.3126 17.28 86.1926 17.008 86.8646 16.464C87.5366 15.904 87.8726 15.072 87.8726 13.968ZM106.504 17.76H106.696V18H101.776V17.76H101.968C102.272 17.76 102.504 17.656 102.664 17.448C102.824 17.24 102.904 17.048 102.904 16.872C102.904 16.68 102.872 16.496 102.808 16.32L101.488 13.128H95.4161L94.0961 16.248C94.0161 16.456 93.9761 16.656 93.9761 16.848C93.9761 17.024 94.0561 17.224 94.2161 17.448C94.3761 17.656 94.6161 17.76 94.9361 17.76H95.1281V18H90.5441V17.76H90.7361C91.0721 17.76 91.4081 17.648 91.7441 17.424C92.0961 17.184 92.3841 16.832 92.6081 16.368C96.1121 8.88 97.9361 4.96 98.0801 4.608C98.3521 3.936 98.4961 3.488 98.5121 3.264H98.7281L104.656 16.368C105.12 17.296 105.736 17.76 106.504 17.76ZM95.7281 12.408H101.2L98.5121 5.832L95.7281 12.408ZM119.874 18H114.018L114.042 17.76H114.33C114.746 17.76 115.098 17.616 115.386 17.328C115.69 17.04 115.85 16.688 115.866 16.272V2.928C115.866 2.512 115.714 2.16 115.41 1.872C115.106 1.584 114.746 1.44 114.33 1.44H114.042L114.018 1.2H118.794C120.442 1.2 121.722 1.568 122.634 2.304C123.546 3.024 124.002 3.992 124.002 5.208C124.002 6.168 123.746 6.968 123.234 7.608C122.722 8.232 122.098 8.648 121.362 8.856C122.626 9.048 123.626 9.568 124.362 10.416C125.098 11.264 125.466 12.336 125.466 13.632C125.466 14.912 124.97 15.96 123.978 16.776C123.002 17.592 121.634 18 119.874 18ZM117.426 17.136H119.778C119.794 17.136 119.81 17.136 119.826 17.136C121.042 17.136 121.986 16.808 122.658 16.152C123.33 15.48 123.666 14.536 123.666 13.32C123.666 12.632 123.546 12.032 123.306 11.52C123.082 10.992 122.794 10.576 122.442 10.272C121.514 9.504 120.122 9.12 118.266 9.12C118.266 9.12 118.258 9.12 118.242 9.12V8.904C118.258 8.904 118.33 8.904 118.458 8.904C118.602 8.904 118.802 8.888 119.058 8.856C119.314 8.824 119.602 8.768 119.922 8.688C120.242 8.608 120.53 8.48 120.786 8.304C121.042 8.128 121.282 7.92 121.506 7.68C121.97 7.152 122.202 6.368 122.202 5.328C122.202 4.272 121.898 3.448 121.29 2.856C120.698 2.264 119.834 1.968 118.698 1.968H117.426V17.136ZM132.214 4.344H130.942V16.464C130.958 16.96 131.182 17.336 131.614 17.592C131.822 17.704 132.054 17.76 132.31 17.76H132.622L132.646 18H127.726V17.76H128.062C128.43 17.76 128.742 17.64 128.998 17.4C129.27 17.144 129.406 16.84 129.406 16.488V5.088C129.406 4.736 129.27 4.44 128.998 4.2C128.742 3.96 128.43 3.84 128.062 3.84H127.726V3.6H133.75C135.254 3.6 136.438 3.944 137.302 4.632C138.182 5.32 138.622 6.224 138.622 7.344C138.622 8.464 138.27 9.4 137.566 10.152C136.862 10.904 135.966 11.336 134.878 11.448C135.39 11.672 136.006 12.296 136.726 13.32C136.71 13.32 136.982 13.672 137.542 14.376C138.118 15.08 138.574 15.632 138.91 16.032C139.262 16.416 139.55 16.712 139.774 16.92C140.366 17.48 141.046 17.76 141.814 17.76V18H141.07C139.806 18 138.814 17.752 138.094 17.256C137.55 16.888 137.054 16.432 136.606 15.888C136.51 15.76 136.102 15.2 135.382 14.208C134.678 13.2 134.302 12.664 134.254 12.6C133.39 11.528 132.582 10.992 131.83 10.992V10.752C133.702 10.752 134.83 10.656 135.214 10.464C135.742 10.192 136.102 9.904 136.294 9.6C136.694 8.96 136.894 8.256 136.894 7.488C136.894 6.512 136.606 5.76 136.03 5.232C135.454 4.704 134.678 4.416 133.702 4.368C133.27 4.352 132.774 4.344 132.214 4.344ZM145.841 4.224C147.073 3.584 148.425 3.264 149.897 3.264C151.385 3.264 152.745 3.584 153.977 4.224C155.209 4.848 156.185 5.736 156.905 6.888C157.641 8.04 158.009 9.344 158.009 10.8C158.009 12.256 157.641 13.56 156.905 14.712C156.185 15.864 155.209 16.76 153.977 17.4C152.745 18.024 151.481 18.336 150.185 18.336C148.889 18.336 147.745 18.152 146.753 17.784C145.761 17.416 144.897 16.904 144.161 16.248C143.441 15.592 142.865 14.792 142.433 13.848C142.017 12.904 141.809 11.8 141.809 10.536C141.809 9.256 142.169 8.04 142.889 6.888C143.625 5.736 144.609 4.848 145.841 4.224ZM145.385 15.72C146.601 16.984 148.105 17.616 149.897 17.616C151.689 17.616 153.193 16.984 154.409 15.72C155.625 14.44 156.233 12.8 156.233 10.8C156.233 8.8 155.625 7.168 154.409 5.904C153.193 4.624 151.689 3.984 149.897 3.984C148.105 3.984 146.601 4.624 145.385 5.904C144.185 7.168 143.585 8.8 143.585 10.8C143.585 12.8 144.185 14.44 145.385 15.72ZM160.587 17.208C160.539 17.016 160.515 16.624 160.515 16.032C160.515 15.44 160.619 14.84 160.827 14.232H161.115C161.099 14.376 161.091 14.52 161.091 14.664C161.091 15.528 161.371 16.24 161.931 16.8C162.507 17.344 163.299 17.616 164.307 17.616C165.363 17.616 166.187 17.376 166.779 16.896C167.371 16.4 167.667 15.768 167.667 15C167.667 14.216 167.379 13.568 166.803 13.056L162.003 9.36C161.235 8.704 160.851 7.824 160.851 6.72C160.851 6.096 161.019 5.52 161.355 4.992C161.707 4.464 162.187 4.048 162.795 3.744C163.419 3.424 164.147 3.264 164.979 3.264C165.811 3.264 166.547 3.336 167.187 3.48H167.979L168.027 6.096H167.763C167.763 5.424 167.531 4.904 167.067 4.536C166.603 4.168 165.939 3.984 165.075 3.984C164.211 3.984 163.499 4.208 162.939 4.656C162.379 5.088 162.099 5.656 162.099 6.36C162.099 7.048 162.411 7.648 163.035 8.16L167.883 11.904C168.619 12.512 168.987 13.36 168.987 14.448C168.987 15.536 168.571 16.456 167.739 17.208C166.923 17.96 165.923 18.336 164.739 18.336C163.955 18.336 163.171 18.24 162.387 18.048C161.603 17.856 161.003 17.576 160.587 17.208ZM173.209 17.784C173.001 17.992 172.745 18.096 172.441 18.096C172.137 18.096 171.881 17.992 171.673 17.784C171.465 17.576 171.361 17.32 171.361 17.016C171.361 16.712 171.465 16.456 171.673 16.248C171.881 16.04 172.137 15.936 172.441 15.936C172.745 15.936 173.001 16.04 173.209 16.248C173.417 16.456 173.521 16.712 173.521 17.016C173.521 17.32 173.417 17.576 173.209 17.784Z" fill="#5E5E5E"/>
</svg>
