<svg width="312" height="25" viewBox="0 0 312 25" fill="none" xmlns="http://www.w3.org/2000/svg">
<path d="M3.176 19C2.376 19 1.696 18.72 1.136 18.16C0.576 17.6 0.296 16.92 0.296 16.12V4.6C0.296 3.8 0.576 3.12 1.136 2.56C1.696 2 2.376 1.72 3.176 1.72H14.696C15.496 1.72 16.176 2 16.736 2.56C17.296 3.12 17.576 3.8 17.576 4.6V17.056H19.832V19H3.176ZM3.176 17.056H14.696C14.952 17.056 15.168 16.968 15.344 16.792C15.536 16.6 15.632 16.376 15.632 16.12V4.6C15.632 4.344 15.536 4.128 15.344 3.952C15.168 3.76 14.952 3.664 14.696 3.664H3.176C2.92 3.664 2.696 3.76 2.504 3.952C2.328 4.128 2.24 4.344 2.24 4.6V16.12C2.24 16.376 2.328 16.6 2.504 16.792C2.696 16.968 2.92 17.056 3.176 17.056ZM24.3869 19C23.5869 19 22.8989 18.72 22.3229 18.16C21.7629 17.584 21.4829 16.896 21.4829 16.096V5.08H23.4509V16.096C23.4509 16.352 23.5389 16.576 23.7149 16.768C23.9069 16.944 24.1309 17.032 24.3869 17.032H32.7389C32.9949 17.032 33.2189 16.944 33.4109 16.768C33.6029 16.576 33.6989 16.352 33.6989 16.096V5.08H35.6669V16.096C35.6669 16.896 35.3789 17.584 34.8029 18.16C34.2429 18.72 33.5549 19 32.7389 19H24.3869ZM40.6749 19C39.8749 19 39.1869 18.72 38.6109 18.16C38.0509 17.584 37.7709 16.896 37.7709 16.096V7.984C37.7709 7.184 38.0509 6.504 38.6109 5.944C39.1869 5.368 39.8749 5.08 40.6749 5.08H49.0269C49.8429 5.08 50.5309 5.368 51.0909 5.944C51.6669 6.504 51.9549 7.184 51.9549 7.984V13.024H39.7389V16.096C39.7389 16.352 39.8269 16.576 40.0029 16.768C40.1949 16.944 40.4189 17.032 40.6749 17.032H51.9549V19H40.6749ZM39.7389 11.056H49.9629V7.984C49.9629 7.728 49.8669 7.512 49.6749 7.336C49.4989 7.144 49.2829 7.048 49.0269 7.048H40.6749C40.4189 7.048 40.1949 7.144 40.0029 7.336C39.8269 7.512 39.7389 7.728 39.7389 7.984V11.056ZM67.8631 19V3.664H60.1831V1.72H77.4631V3.664H69.8071V19H67.8631ZM79.0889 19C78.2889 19 77.6009 18.72 77.0249 18.16C76.4649 17.584 76.1849 16.896 76.1849 16.096V7.984C76.1849 7.184 76.4649 6.504 77.0249 5.944C77.6009 5.368 78.2889 5.08 79.0889 5.08H87.4409C88.2569 5.08 88.9449 5.368 89.5049 5.944C90.0809 6.504 90.3689 7.184 90.3689 7.984V16.096C90.3689 16.896 90.0809 17.584 89.5049 18.16C88.9449 18.72 88.2569 19 87.4409 19H79.0889ZM79.0889 17.032H87.4409C87.6969 17.032 87.9129 16.944 88.0889 16.768C88.2809 16.576 88.3769 16.352 88.3769 16.096V7.984C88.3769 7.728 88.2809 7.512 88.0889 7.336C87.9129 7.144 87.6969 7.048 87.4409 7.048H79.0889C78.8329 7.048 78.6089 7.144 78.4169 7.336C78.2409 7.512 78.1529 7.728 78.1529 7.984V16.096C78.1529 16.352 78.2409 16.576 78.4169 16.768C78.6089 16.944 78.8329 17.032 79.0889 17.032ZM95.1654 19C94.3654 19 93.6774 18.72 93.1014 18.16C92.5414 17.584 92.2614 16.896 92.2614 16.096V15.904H94.2294V16.096C94.2294 16.352 94.3174 16.576 94.4934 16.768C94.6854 16.944 94.9094 17.032 95.1654 17.032H103.517C103.773 17.032 103.989 16.944 104.165 16.768C104.357 16.576 104.453 16.352 104.453 16.096V13.96C104.453 13.704 104.357 13.488 104.165 13.312C103.989 13.12 103.773 13.024 103.517 13.024H95.1654C94.3654 13.024 93.6774 12.744 93.1014 12.184C92.5414 11.608 92.2614 10.92 92.2614 10.12V7.984C92.2614 7.184 92.5414 6.504 93.1014 5.944C93.6774 5.368 94.3654 5.08 95.1654 5.08H103.517C104.333 5.08 105.021 5.368 105.581 5.944C106.157 6.504 106.445 7.184 106.445 7.984V8.176H104.453V7.984C104.453 7.728 104.357 7.512 104.165 7.336C103.989 7.144 103.773 7.048 103.517 7.048H95.1654C94.9094 7.048 94.6854 7.144 94.4934 7.336C94.3174 7.512 94.2294 7.728 94.2294 7.984V10.12C94.2294 10.376 94.3174 10.6 94.4934 10.792C94.6854 10.968 94.9094 11.056 95.1654 11.056H103.517C104.333 11.056 105.021 11.344 105.581 11.92C106.157 12.48 106.445 13.16 106.445 13.96V16.096C106.445 16.896 106.157 17.584 105.581 18.16C105.021 18.72 104.333 19 103.517 19H95.1654ZM111.739 19C110.923 19 110.235 18.72 109.675 18.16C109.115 17.584 108.835 16.896 108.835 16.096V0.519999H110.803V5.08H116.827V7.048H110.803V16.096C110.803 16.352 110.891 16.576 111.067 16.768C111.259 16.944 111.483 17.032 111.739 17.032H116.827V19H111.739ZM121.534 19C120.734 19 120.046 18.72 119.47 18.16C118.91 17.584 118.63 16.896 118.63 16.096V7.984C118.63 7.184 118.91 6.504 119.47 5.944C120.046 5.368 120.734 5.08 121.534 5.08H129.886C130.702 5.08 131.39 5.368 131.95 5.944C132.526 6.504 132.814 7.184 132.814 7.984V16.096C132.814 16.896 132.526 17.584 131.95 18.16C131.39 18.72 130.702 19 129.886 19H121.534ZM121.534 17.032H129.886C130.142 17.032 130.358 16.944 130.534 16.768C130.726 16.576 130.822 16.352 130.822 16.096V7.984C130.822 7.728 130.726 7.512 130.534 7.336C130.358 7.144 130.142 7.048 129.886 7.048H121.534C121.278 7.048 121.054 7.144 120.862 7.336C120.686 7.512 120.598 7.728 120.598 7.984V16.096C120.598 16.352 120.686 16.576 120.862 16.768C121.054 16.944 121.278 17.032 121.534 17.032ZM134.968 19V5.08H146.248C147.048 5.08 147.728 5.368 148.288 5.944C148.864 6.504 149.152 7.184 149.152 7.984V19H147.184V7.984C147.184 7.728 147.088 7.512 146.896 7.336C146.72 7.144 146.504 7.048 146.248 7.048H137.896C137.64 7.048 137.416 7.144 137.224 7.336C137.032 7.512 136.936 7.728 136.936 7.984V19H134.968ZM158.314 19V1.72H174.082V3.664H160.258V9.376H171.37V11.344H160.258V17.056H174.082V19H158.314ZM176.593 19V5.08H187.873C188.673 5.08 189.353 5.368 189.913 5.944C190.489 6.504 190.777 7.184 190.777 7.984V19H188.809V7.984C188.809 7.728 188.713 7.512 188.521 7.336C188.345 7.144 188.129 7.048 187.873 7.048H179.521C179.265 7.048 179.041 7.144 178.849 7.336C178.657 7.512 178.561 7.728 178.561 7.984V19H176.593ZM195.56 24.496V22.504H204.248C204.504 22.504 204.72 22.408 204.896 22.216C205.088 22.04 205.184 21.824 205.184 21.568V19H195.896C195.096 19 194.408 18.72 193.832 18.16C193.272 17.584 192.992 16.896 192.992 16.096V7.984C192.992 7.184 193.272 6.504 193.832 5.944C194.408 5.368 195.096 5.08 195.896 5.08H204.248C205.064 5.08 205.752 5.368 206.312 5.944C206.872 6.504 207.152 7.184 207.152 7.984V21.568C207.152 22.384 206.872 23.072 206.312 23.632C205.752 24.208 205.064 24.496 204.248 24.496H195.56ZM195.896 17.032H204.248C204.504 17.032 204.72 16.944 204.896 16.768C205.088 16.576 205.184 16.352 205.184 16.096V7.984C205.184 7.728 205.088 7.512 204.896 7.336C204.72 7.144 204.504 7.048 204.248 7.048H195.896C195.64 7.048 195.416 7.144 195.224 7.336C195.048 7.512 194.96 7.728 194.96 7.984V16.096C194.96 16.352 195.048 16.576 195.224 16.768C195.416 16.944 195.64 17.032 195.896 17.032ZM209.639 19V5.08H211.607V19H209.639ZM209.639 2.488V0.519999H211.607V2.488H209.639ZM214.327 19V5.08H225.607C226.407 5.08 227.087 5.368 227.647 5.944C228.223 6.504 228.511 7.184 228.511 7.984V19H226.543V7.984C226.543 7.728 226.447 7.512 226.255 7.336C226.079 7.144 225.863 7.048 225.607 7.048H217.255C216.999 7.048 216.775 7.144 216.583 7.336C216.391 7.512 216.295 7.728 216.295 7.984V19H214.327ZM233.87 19C233.07 19 232.382 18.72 231.806 18.16C231.246 17.584 230.966 16.896 230.966 16.096V7.984C230.966 7.184 231.246 6.504 231.806 5.944C232.382 5.368 233.07 5.08 233.87 5.08H242.222C243.038 5.08 243.726 5.368 244.286 5.944C244.862 6.504 245.15 7.184 245.15 7.984V13.024H232.934V16.096C232.934 16.352 233.022 16.576 233.198 16.768C233.39 16.944 233.614 17.032 233.87 17.032H245.15V19H233.87ZM232.934 11.056H243.158V7.984C243.158 7.728 243.062 7.512 242.87 7.336C242.694 7.144 242.478 7.048 242.222 7.048H233.87C233.614 7.048 233.39 7.144 233.198 7.336C233.022 7.512 232.934 7.728 232.934 7.984V11.056ZM250.136 19C249.336 19 248.648 18.72 248.072 18.16C247.512 17.584 247.232 16.896 247.232 16.096V7.984C247.232 7.184 247.512 6.504 248.072 5.944C248.648 5.368 249.336 5.08 250.136 5.08H258.488C259.304 5.08 259.992 5.368 260.552 5.944C261.128 6.504 261.416 7.184 261.416 7.984V13.024H249.2V16.096C249.2 16.352 249.288 16.576 249.464 16.768C249.656 16.944 249.88 17.032 250.136 17.032H261.416V19H250.136ZM249.2 11.056H259.424V7.984C259.424 7.728 259.328 7.512 259.136 7.336C258.96 7.144 258.744 7.048 258.488 7.048H250.136C249.88 7.048 249.656 7.144 249.464 7.336C249.288 7.512 249.2 7.728 249.2 7.984V11.056ZM263.756 19V7.984C263.756 7.184 264.036 6.504 264.596 5.944C265.172 5.368 265.86 5.08 266.66 5.08H274.484V7.048H266.66C266.404 7.048 266.18 7.144 265.988 7.336C265.812 7.512 265.724 7.728 265.724 7.984V19H263.756ZM276.037 19V5.08H278.005V19H276.037ZM276.037 2.488V0.519999H278.005V2.488H276.037ZM280.726 19V5.08H292.006C292.806 5.08 293.486 5.368 294.046 5.944C294.622 6.504 294.91 7.184 294.91 7.984V19H292.942V7.984C292.942 7.728 292.846 7.512 292.654 7.336C292.478 7.144 292.262 7.048 292.006 7.048H283.654C283.398 7.048 283.174 7.144 282.982 7.336C282.79 7.512 282.694 7.728 282.694 7.984V19H280.726ZM299.693 24.496V22.504H308.381C308.637 22.504 308.853 22.408 309.029 22.216C309.221 22.04 309.317 21.824 309.317 21.568V19H300.029C299.229 19 298.541 18.72 297.965 18.16C297.405 17.584 297.125 16.896 297.125 16.096V7.984C297.125 7.184 297.405 6.504 297.965 5.944C298.541 5.368 299.229 5.08 300.029 5.08H308.381C309.197 5.08 309.885 5.368 310.445 5.944C311.005 6.504 311.285 7.184 311.285 7.984V21.568C311.285 22.384 311.005 23.072 310.445 23.632C309.885 24.208 309.197 24.496 308.381 24.496H299.693ZM300.029 17.032H308.381C308.637 17.032 308.853 16.944 309.029 16.768C309.221 16.576 309.317 16.352 309.317 16.096V7.984C309.317 7.728 309.221 7.512 309.029 7.336C308.853 7.144 308.637 7.048 308.381 7.048H300.029C299.773 7.048 299.549 7.144 299.357 7.336C299.181 7.512 299.093 7.728 299.093 7.984V16.096C299.093 16.352 299.181 16.576 299.357 16.768C299.549 16.944 299.773 17.032 300.029 17.032Z" fill="#5E5E5E"/>
</svg>
