<svg width="166" height="27" viewBox="0 0 166 27" fill="none" xmlns="http://www.w3.org/2000/svg">
<path d="M6.37 20.468C5.278 20.468 4.316 20.2773 3.484 19.896C2.652 19.5147 2.01067 18.986 1.56 18.31C1.10933 17.6167 0.884 16.8193 0.884 15.918C0.884 15.1553 1.04 14.462 1.352 13.838C1.68133 13.214 2.11467 12.72 2.652 12.356C3.20667 11.992 3.81333 11.81 4.472 11.81C5.07867 11.81 5.59 11.966 6.006 12.278C6.422 12.5727 6.682 12.9887 6.786 13.526C5.88467 13.526 5.16533 13.7687 4.628 14.254C4.09067 14.722 3.822 15.3633 3.822 16.178C3.822 16.9233 4.04733 17.5213 4.498 17.972C4.94867 18.4227 5.54667 18.648 6.292 18.648C7.21067 18.648 7.96467 18.3447 8.554 17.738C9.16067 17.114 9.464 16.334 9.464 15.398C9.464 14.5833 9.23867 13.812 8.788 13.084C8.33733 12.356 7.66133 11.472 6.76 10.432C5.824 9.35733 5.11333 8.43867 4.628 7.676C4.16 6.896 3.926 6.04667 3.926 5.128C3.926 4.22667 4.17733 3.42067 4.68 2.71C5.18267 1.982 5.876 1.41 6.76 0.994C7.644 0.577999 8.64067 0.369999 9.75 0.369999C11.154 0.369999 12.272 0.699332 13.104 1.358C13.9533 2.01667 14.378 2.90067 14.378 4.01C14.378 4.738 14.196 5.32733 13.832 5.778C13.468 6.22867 12.9913 6.454 12.402 6.454C11.7433 6.454 11.2147 6.18533 10.816 5.648C11.1453 5.40533 11.4053 5.08467 11.596 4.686C11.7867 4.28733 11.882 3.87133 11.882 3.438C11.882 2.88333 11.7173 2.44133 11.388 2.112C11.0587 1.78267 10.608 1.618 10.036 1.618C9.34267 1.618 8.77067 1.86933 8.32 2.372C7.88667 2.85733 7.67 3.48133 7.67 4.244C7.67 4.93733 7.86933 5.58733 8.268 6.194C8.66667 6.78333 9.29067 7.546 10.14 8.482C10.8333 9.22733 11.388 9.86867 11.804 10.406C12.2373 10.9433 12.6013 11.5673 12.896 12.278C13.208 12.9713 13.364 13.7253 13.364 14.54C13.364 15.6493 13.052 16.6547 12.428 17.556C11.8213 18.4573 10.9807 19.168 9.906 19.688C8.84867 20.208 7.67 20.468 6.37 20.468ZM24.2141 20.156C23.1568 20.156 22.3768 19.8787 21.8741 19.324C21.3888 18.752 21.1461 18.05 21.1461 17.218C21.1461 16.854 21.1895 16.4467 21.2761 15.996C21.3628 15.528 21.4495 15.0773 21.5361 14.644C21.6401 14.2107 21.7095 13.9333 21.7441 13.812C21.8828 13.2053 22.0128 12.6073 22.1341 12.018C22.2555 11.4287 22.3161 10.952 22.3161 10.588C22.3161 9.704 22.0041 9.262 21.3801 9.262C20.9295 9.262 20.5308 9.48733 20.1841 9.938C19.8375 10.3713 19.5601 10.9433 19.3521 11.654L17.5841 20H13.8401L16.5961 7H20.3401L20.0541 8.352C20.9208 7.38133 21.9348 6.896 23.0961 6.896C23.9801 6.896 24.6821 7.13867 25.2021 7.624C25.7221 8.10933 25.9821 8.846 25.9821 9.834C25.9821 10.3367 25.9215 10.9 25.8001 11.524C25.6788 12.1307 25.5055 12.876 25.2801 13.76C25.1415 14.2973 25.0115 14.826 24.8901 15.346C24.7861 15.8487 24.7341 16.2473 24.7341 16.542C24.7341 16.8887 24.8121 17.1573 24.9681 17.348C25.1241 17.5387 25.3928 17.634 25.7741 17.634C26.2941 17.634 26.7101 17.452 27.0221 17.088C27.3341 16.7067 27.6461 16.126 27.9581 15.346H29.0501C28.4088 17.2527 27.6635 18.5353 26.8141 19.194C25.9821 19.8353 25.1155 20.156 24.2141 20.156ZM31.7511 20.104C30.4684 20.104 29.4544 19.7747 28.7091 19.116C27.9637 18.4573 27.5911 17.4173 27.5911 15.996C27.5911 14.8173 27.8337 13.5087 28.3191 12.07C28.8044 10.6313 29.5844 9.392 30.6591 8.352C31.7337 7.29467 33.0857 6.766 34.7151 6.766C36.9337 6.766 38.0431 8.15267 38.0431 10.926V10.952C38.0951 10.9693 38.1904 10.978 38.3291 10.978C38.9011 10.978 39.5597 10.8307 40.3051 10.536C41.0504 10.224 41.7264 9.85133 42.3331 9.418L42.5671 10.12C42.0644 10.6573 41.4057 11.1167 40.5911 11.498C39.7937 11.862 38.9184 12.122 37.9651 12.278C37.8264 13.8553 37.4711 15.2333 36.8991 16.412C36.3271 17.5907 35.5904 18.5007 34.6891 19.142C33.7877 19.7833 32.8084 20.104 31.7511 20.104ZM32.7911 17.764C33.2071 17.764 33.6231 17.53 34.0391 17.062C34.4551 16.5767 34.8191 15.9267 35.1311 15.112C35.4431 14.28 35.6684 13.3613 35.8071 12.356C35.3391 12.252 35.1051 11.888 35.1051 11.264C35.1051 10.5533 35.3737 10.0853 35.9111 9.86C35.8764 9.288 35.7897 8.898 35.6511 8.69C35.5124 8.46467 35.2697 8.352 34.9231 8.352C34.3511 8.352 33.7964 8.768 33.2591 9.6C32.7217 10.432 32.2884 11.4287 31.9591 12.59C31.6297 13.7513 31.4651 14.774 31.4651 15.658C31.4651 16.49 31.5604 17.0533 31.7511 17.348C31.9417 17.6253 32.2884 17.764 32.7911 17.764ZM43.1769 20.104C41.8942 20.104 40.8802 19.7747 40.1349 19.116C39.3895 18.4573 39.0169 17.4173 39.0169 15.996C39.0169 14.8173 39.2595 13.5087 39.7449 12.07C40.2302 10.6313 41.0102 9.392 42.0849 8.352C43.1595 7.29467 44.5115 6.766 46.1409 6.766C48.3595 6.766 49.4689 8.15267 49.4689 10.926V10.952C49.5209 10.9693 49.6162 10.978 49.7549 10.978C50.3269 10.978 50.9855 10.8307 51.7309 10.536C52.4762 10.224 53.1522 9.85133 53.7589 9.418L53.9929 10.12C53.4902 10.6573 52.8315 11.1167 52.0169 11.498C51.2195 11.862 50.3442 12.122 49.3909 12.278C49.2522 13.8553 48.8969 15.2333 48.3249 16.412C47.7529 17.5907 47.0162 18.5007 46.1149 19.142C45.2135 19.7833 44.2342 20.104 43.1769 20.104ZM44.2169 17.764C44.6329 17.764 45.0489 17.53 45.4649 17.062C45.8809 16.5767 46.2449 15.9267 46.5569 15.112C46.8689 14.28 47.0942 13.3613 47.2329 12.356C46.7649 12.252 46.5309 11.888 46.5309 11.264C46.5309 10.5533 46.7995 10.0853 47.3369 9.86C47.3022 9.288 47.2155 8.898 47.0769 8.69C46.9382 8.46467 46.6955 8.352 46.3489 8.352C45.7769 8.352 45.2222 8.768 44.6849 9.6C44.1475 10.432 43.7142 11.4287 43.3849 12.59C43.0555 13.7513 42.8909 14.774 42.8909 15.658C42.8909 16.49 42.9862 17.0533 43.1769 17.348C43.3675 17.6253 43.7142 17.764 44.2169 17.764ZM53.3806 20.156C52.5486 20.156 51.8726 19.896 51.3526 19.376C50.85 18.856 50.5986 18.076 50.5986 17.036C50.5986 16.6027 50.668 16.0393 50.8066 15.346L52.3666 8.04H51.5086L51.7166 7H52.5746L53.3546 3.412L57.2026 2.892L56.3186 7H57.8786L57.6706 8.04H56.1106L54.4466 15.84C54.3773 16.1 54.3426 16.3773 54.3426 16.672C54.3426 17.0187 54.4206 17.27 54.5766 17.426C54.75 17.5647 55.0273 17.634 55.4086 17.634C55.9113 17.634 56.3793 17.426 56.8126 17.01C57.246 16.5767 57.558 16.022 57.7486 15.346H58.8406C58.1993 17.218 57.376 18.492 56.3706 19.168C55.3653 19.8267 54.3686 20.156 53.3806 20.156ZM61.7943 26.5C60.9796 26.5 60.2603 26.2313 59.6363 25.694C59.0296 25.174 58.7263 24.5067 58.7263 23.692C58.7263 22.9293 58.9169 22.3053 59.2983 21.82C59.6796 21.3347 60.1736 20.9533 60.7803 20.676C61.3869 20.3987 62.2016 20.104 63.2243 19.792L63.4843 18.648C62.6003 19.6533 61.5429 20.156 60.3123 20.156C59.4803 20.156 58.8043 19.896 58.2843 19.376C57.7816 18.856 57.5303 18.076 57.5303 17.036C57.5303 16.6027 57.5996 16.0393 57.7383 15.346L59.5063 7H63.2503L61.3783 15.84C61.3263 16.048 61.3003 16.2647 61.3003 16.49C61.3003 17.2527 61.5603 17.634 62.0803 17.634C62.5656 17.634 62.9816 17.4347 63.3283 17.036C63.6749 16.62 63.9523 16.0567 64.1603 15.346L65.9283 7H69.6983L66.5263 22.08C66.1796 23.744 65.5643 24.8967 64.6803 25.538C63.8136 26.1793 62.8516 26.5 61.7943 26.5ZM61.1963 24.186C61.5083 24.186 61.8029 24.0213 62.0803 23.692C62.3576 23.38 62.5743 22.8687 62.7303 22.158L63.0423 20.624C62.1236 20.936 61.4129 21.3 60.9103 21.716C60.4076 22.132 60.1563 22.6693 60.1563 23.328C60.1563 23.536 60.2603 23.7267 60.4683 23.9C60.6763 24.0907 60.9189 24.186 61.1963 24.186ZM81.704 20.468C80.612 20.468 79.65 20.2773 78.818 19.896C77.986 19.5147 77.3447 18.986 76.894 18.31C76.4433 17.6167 76.218 16.8193 76.218 15.918C76.218 15.1553 76.374 14.462 76.686 13.838C77.0153 13.214 77.4487 12.72 77.986 12.356C78.5407 11.992 79.1473 11.81 79.806 11.81C80.4127 11.81 80.924 11.966 81.34 12.278C81.756 12.5727 82.016 12.9887 82.12 13.526C81.2187 13.526 80.4993 13.7687 79.962 14.254C79.4247 14.722 79.156 15.3633 79.156 16.178C79.156 16.9233 79.3813 17.5213 79.832 17.972C80.2827 18.4227 80.8807 18.648 81.626 18.648C82.5447 18.648 83.2987 18.3447 83.888 17.738C84.4947 17.114 84.798 16.334 84.798 15.398C84.798 14.5833 84.5727 13.812 84.122 13.084C83.6713 12.356 82.9953 11.472 82.094 10.432C81.158 9.35733 80.4473 8.43867 79.962 7.676C79.494 6.896 79.26 6.04667 79.26 5.128C79.26 4.22667 79.5113 3.42067 80.014 2.71C80.5167 1.982 81.21 1.41 82.094 0.994C82.978 0.577999 83.9747 0.369999 85.084 0.369999C86.488 0.369999 87.606 0.699332 88.438 1.358C89.2873 2.01667 89.712 2.90067 89.712 4.01C89.712 4.738 89.53 5.32733 89.166 5.778C88.802 6.22867 88.3253 6.454 87.736 6.454C87.0773 6.454 86.5487 6.18533 86.15 5.648C86.4793 5.40533 86.7393 5.08467 86.93 4.686C87.1207 4.28733 87.216 3.87133 87.216 3.438C87.216 2.88333 87.0513 2.44133 86.722 2.112C86.3927 1.78267 85.942 1.618 85.37 1.618C84.6767 1.618 84.1047 1.86933 83.654 2.372C83.2207 2.85733 83.004 3.48133 83.004 4.244C83.004 4.93733 83.2033 5.58733 83.602 6.194C84.0007 6.78333 84.6247 7.546 85.474 8.482C86.1673 9.22733 86.722 9.86867 87.138 10.406C87.5713 10.9433 87.9353 11.5673 88.23 12.278C88.542 12.9713 88.698 13.7253 88.698 14.54C88.698 15.6493 88.386 16.6547 87.762 17.556C87.1553 18.4573 86.3147 19.168 85.24 19.688C84.1827 20.208 83.004 20.468 81.704 20.468ZM93.2821 20.156C92.2941 20.156 91.4708 19.818 90.8121 19.142C90.1534 18.466 89.8241 17.4087 89.8241 15.97C89.8241 14.6873 90.0754 13.344 90.5781 11.94C91.0981 10.5187 91.8608 9.32267 92.8661 8.352C93.8888 7.364 95.1021 6.87 96.5061 6.87C97.2168 6.87 97.7454 6.99133 98.0921 7.234C98.4388 7.47667 98.6121 7.79733 98.6121 8.196V8.378L98.8981 7H102.642L100.77 15.84C100.701 16.1 100.666 16.3773 100.666 16.672C100.666 17.4173 101.021 17.79 101.732 17.79C102.217 17.79 102.633 17.5647 102.98 17.114C103.344 16.6633 103.63 16.074 103.838 15.346H104.93C104.289 17.218 103.491 18.492 102.538 19.168C101.602 19.8267 100.657 20.156 99.7041 20.156C98.9761 20.156 98.3868 19.9567 97.9361 19.558C97.5028 19.142 97.2428 18.544 97.1561 17.764C96.6534 18.4747 96.0901 19.0553 95.4661 19.506C94.8594 19.9393 94.1314 20.156 93.2821 20.156ZM94.9721 17.634C95.4054 17.634 95.8301 17.4347 96.2461 17.036C96.6794 16.62 96.9741 16.0567 97.1301 15.346L98.3781 9.47C98.3781 9.24467 98.2914 9.028 98.1181 8.82C97.9448 8.59467 97.6761 8.482 97.3121 8.482C96.6188 8.482 95.9948 8.88933 95.4401 9.704C94.8854 10.5013 94.4521 11.472 94.1401 12.616C93.8281 13.7427 93.6721 14.7393 93.6721 15.606C93.6721 16.4727 93.7934 17.0273 94.0361 17.27C94.2961 17.5127 94.6081 17.634 94.9721 17.634ZM106.422 20.156C105.59 20.156 104.914 19.896 104.394 19.376C103.891 18.856 103.64 18.076 103.64 17.036C103.64 16.6027 103.709 16.0393 103.848 15.346L106.63 2.32L110.478 1.8L107.488 15.84C107.418 16.1 107.384 16.3773 107.384 16.672C107.384 17.0187 107.462 17.27 107.618 17.426C107.791 17.5647 108.068 17.634 108.45 17.634C108.952 17.634 109.42 17.426 109.854 17.01C110.287 16.5767 110.599 16.022 110.79 15.346H111.882C111.24 17.218 110.417 18.492 109.412 19.168C108.406 19.8267 107.41 20.156 106.422 20.156ZM114.497 20.156C113.215 20.156 112.218 19.8267 111.507 19.168C110.797 18.492 110.441 17.4433 110.441 16.022C110.441 14.826 110.675 13.5087 111.143 12.07C111.611 10.6313 112.374 9.392 113.431 8.352C114.489 7.29467 115.832 6.766 117.461 6.766C119.368 6.766 120.321 7.598 120.321 9.262C120.321 10.2327 120.044 11.1253 119.489 11.94C118.935 12.7547 118.198 13.4133 117.279 13.916C116.361 14.4013 115.381 14.6787 114.341 14.748C114.307 15.268 114.289 15.6147 114.289 15.788C114.289 16.6373 114.437 17.218 114.731 17.53C115.026 17.8247 115.503 17.972 116.161 17.972C117.097 17.972 117.895 17.7553 118.553 17.322C119.229 16.8887 119.966 16.23 120.763 15.346H121.647C119.723 18.5527 117.34 20.156 114.497 20.156ZM114.549 13.5C115.191 13.4653 115.797 13.24 116.369 12.824C116.959 12.408 117.427 11.8793 117.773 11.238C118.137 10.5967 118.319 9.92067 118.319 9.21C118.319 8.49933 118.103 8.144 117.669 8.144C117.045 8.144 116.43 8.69 115.823 9.782C115.234 10.874 114.809 12.1133 114.549 13.5ZM123.722 20.156C122.89 20.156 122.188 20 121.616 19.688C121.044 19.3587 120.619 18.9427 120.342 18.44C120.064 17.92 119.926 17.3827 119.926 16.828C119.926 16.256 120.064 15.762 120.342 15.346C120.602 14.9127 120.922 14.6007 121.304 14.41C121.98 13.1967 122.569 11.9747 123.072 10.744C123.574 9.496 124.051 8.15267 124.502 6.714L128.35 6.194C128.436 8.41267 128.584 10.8133 128.792 13.396C128.878 14.436 128.922 15.19 128.922 15.658C128.922 16.7153 128.653 17.582 128.116 18.258C127.578 18.934 126.911 19.4193 126.114 19.714C125.334 20.0087 124.536 20.156 123.722 20.156ZM122.89 18.102C123.531 18.102 124.068 17.9113 124.502 17.53C124.935 17.1487 125.152 16.5333 125.152 15.684C125.152 15.164 125.1 14.436 124.996 13.5C124.822 11.524 124.71 10.198 124.658 9.522C124.242 10.8913 123.54 12.5293 122.552 14.436C122.95 14.644 123.15 14.9473 123.15 15.346C123.15 15.6753 123.037 15.97 122.812 16.23C122.604 16.49 122.335 16.62 122.006 16.62C121.642 16.62 121.408 16.5073 121.304 16.282C121.304 16.906 121.425 17.3653 121.668 17.66C121.928 17.9547 122.335 18.102 122.89 18.102ZM140.809 20.416C138.85 20.416 137.412 19.922 136.493 18.934C135.574 17.946 135.115 16.308 135.115 14.02C135.115 12.2 135.418 10.2413 136.025 8.144C136.649 6.04667 137.637 4.25267 138.989 2.762C140.358 1.254 142.092 0.499998 144.189 0.499998C145.489 0.499998 146.538 0.785999 147.335 1.358C148.132 1.93 148.531 2.80533 148.531 3.984C148.531 4.72933 148.384 5.31867 148.089 5.752C147.794 6.168 147.335 6.376 146.711 6.376C146.087 6.376 145.593 6.15067 145.229 5.7C145.541 5.544 145.818 5.232 146.061 4.764C146.304 4.296 146.425 3.81067 146.425 3.308C146.425 2.84 146.295 2.45867 146.035 2.164C145.792 1.86933 145.394 1.722 144.839 1.722C143.92 1.722 143.045 2.35467 142.213 3.62C141.381 4.868 140.705 6.44533 140.185 8.352C139.682 10.2587 139.431 12.096 139.431 13.864C139.431 15.1813 139.656 16.1867 140.107 16.88C140.558 17.5733 141.372 17.92 142.551 17.92C143.574 17.92 144.518 17.6947 145.385 17.244C146.252 16.7933 146.997 16.152 147.621 15.32L148.219 15.58C147.786 16.672 147.144 17.582 146.295 18.31C145.446 19.038 144.536 19.5753 143.565 19.922C142.594 20.2513 141.676 20.416 140.809 20.416ZM151.341 20.104C150.058 20.104 149.044 19.7747 148.299 19.116C147.554 18.4573 147.181 17.4173 147.181 15.996C147.181 14.8 147.415 13.4913 147.883 12.07C148.351 10.6313 149.114 9.392 150.171 8.352C151.228 7.29467 152.58 6.766 154.227 6.766C156.272 6.766 157.373 7.936 157.529 10.276C157.91 10.1893 158.248 9.98133 158.543 9.652C158.838 9.30533 159.115 8.91533 159.375 8.482H160.207C159.739 9.418 159.323 10.1547 158.959 10.692C158.595 11.212 158.118 11.6367 157.529 11.966C157.425 13.5953 157.087 15.0253 156.515 16.256C155.96 17.4867 155.232 18.44 154.331 19.116C153.43 19.7747 152.433 20.104 151.341 20.104ZM152.381 17.764C153.022 17.764 153.62 17.244 154.175 16.204C154.73 15.164 155.111 13.8813 155.319 12.356C154.903 12.2 154.695 11.81 154.695 11.186C154.695 10.51 154.938 10.0593 155.423 9.834C155.388 9.27933 155.293 8.898 155.137 8.69C154.998 8.46467 154.764 8.352 154.435 8.352C153.863 8.352 153.317 8.768 152.797 9.6C152.277 10.4147 151.852 11.4113 151.523 12.59C151.211 13.7513 151.055 14.774 151.055 15.658C151.055 16.49 151.15 17.0533 151.341 17.348C151.532 17.6253 151.878 17.764 152.381 17.764ZM163.075 20.104C162.503 20.104 162.018 19.9047 161.619 19.506C161.22 19.1073 161.021 18.622 161.021 18.05C161.021 17.478 161.22 16.9927 161.619 16.594C162.018 16.178 162.503 15.97 163.075 15.97C163.647 15.97 164.132 16.178 164.531 16.594C164.947 16.9927 165.155 17.478 165.155 18.05C165.155 18.622 164.947 19.1073 164.531 19.506C164.132 19.9047 163.647 20.104 163.075 20.104Z" fill="#777777"/>
</svg>
