<svg width="242" height="20" viewBox="0 0 242 20" fill="none" xmlns="http://www.w3.org/2000/svg">
<path d="M187.267 17.5439C187.668 18.5798 188.244 19.1145 188.996 19.1479V19.6491C188.328 19.599 187.434 19.5739 186.314 19.5739C184.877 19.5739 183.808 19.599 183.106 19.6491V19.1479C183.741 19.1145 184.192 19.0393 184.46 18.9223C184.744 18.7886 184.886 18.5547 184.886 18.2206C184.886 17.9365 184.785 17.5439 184.585 17.0426L183.056 12.9323H176.991L175.963 15.589C175.629 16.4912 175.462 17.1763 175.462 17.6441C175.462 18.1621 175.638 18.538 175.988 18.7719C176.356 19.0058 176.907 19.1312 177.643 19.1479V19.6491C176.69 19.599 175.73 19.5739 174.76 19.5739C174.009 19.5739 173.382 19.599 172.881 19.6491V19.1479C173.716 18.9474 174.376 18.2206 174.861 16.9674L180.75 1.77945H181.151L187.267 17.5439ZM182.856 12.4311L180.049 4.93734L177.192 12.4311H182.856Z" fill="#5E5E5E"/>
<path d="M194.056 6.39098C194.657 6.39098 195.192 6.48287 195.66 6.66667C196.128 6.85046 196.504 7.06767 196.788 7.3183C196.971 7.45196 197.122 7.5188 197.239 7.5188C197.539 7.5188 197.723 7.15121 197.79 6.41604H198.367C198.3 7.23475 198.266 8.65497 198.266 10.6767H197.69C197.506 9.57394 197.147 8.66332 196.612 7.94486C196.094 7.2264 195.317 6.86717 194.281 6.86717C193.68 6.86717 193.187 7.04261 192.803 7.39348C192.418 7.72765 192.226 8.19549 192.226 8.79699C192.226 9.38179 192.427 9.87469 192.828 10.2757C193.229 10.66 193.872 11.1278 194.757 11.6792C194.908 11.7627 195.133 11.9048 195.434 12.1053C196.203 12.6065 196.821 13.0493 197.289 13.4336C197.757 13.8179 198.133 14.2607 198.417 14.7619C198.717 15.2632 198.868 15.8396 198.868 16.4912C198.868 17.594 198.45 18.4545 197.615 19.0727C196.796 19.6909 195.785 20 194.582 20C193.83 20 193.17 19.883 192.602 19.6491C192.235 19.4653 191.892 19.2398 191.575 18.9724C191.508 18.9056 191.433 18.8722 191.349 18.8722C191.232 18.8722 191.123 18.9557 191.023 19.1228C190.94 19.2899 190.873 19.5238 190.823 19.8246H190.246C190.313 18.8722 190.346 17.2013 190.346 14.812H190.923C191.107 16.3826 191.441 17.5606 191.925 18.3459C192.41 19.1145 193.237 19.4987 194.407 19.4987C194.991 19.4987 195.509 19.3066 195.96 18.9223C196.412 18.538 196.637 17.9365 196.637 17.1178C196.637 16.4662 196.412 15.9148 195.96 15.4637C195.526 15.0125 194.808 14.4695 193.805 13.8346C192.986 13.3166 192.351 12.8906 191.9 12.5564C191.466 12.2222 191.098 11.8129 190.798 11.3283C190.497 10.8438 190.346 10.2757 190.346 9.62406C190.346 8.57143 190.697 7.76942 191.399 7.21805C192.101 6.66667 192.986 6.39098 194.056 6.39098Z" fill="#5E5E5E"/>
<path d="M205.265 6.39098C205.867 6.39098 206.402 6.48287 206.869 6.66667C207.337 6.85046 207.713 7.06767 207.997 7.3183C208.181 7.45196 208.331 7.5188 208.448 7.5188C208.749 7.5188 208.933 7.15121 209 6.41604H209.576C209.509 7.23475 209.476 8.65497 209.476 10.6767H208.899C208.716 9.57394 208.356 8.66332 207.822 7.94486C207.304 7.2264 206.527 6.86717 205.491 6.86717C204.889 6.86717 204.397 7.04261 204.012 7.39348C203.628 7.72765 203.436 8.19549 203.436 8.79699C203.436 9.38179 203.636 9.87469 204.037 10.2757C204.438 10.66 205.082 11.1278 205.967 11.6792C206.118 11.7627 206.343 11.9048 206.644 12.1053C207.412 12.6065 208.031 13.0493 208.498 13.4336C208.966 13.8179 209.342 14.2607 209.626 14.7619C209.927 15.2632 210.077 15.8396 210.077 16.4912C210.077 17.594 209.66 18.4545 208.824 19.0727C208.006 19.6909 206.995 20 205.792 20C205.04 20 204.38 19.883 203.812 19.6491C203.444 19.4653 203.102 19.2398 202.784 18.9724C202.717 18.9056 202.642 18.8722 202.559 18.8722C202.442 18.8722 202.333 18.9557 202.233 19.1228C202.149 19.2899 202.082 19.5238 202.032 19.8246H201.456C201.523 18.8722 201.556 17.2013 201.556 14.812H202.133C202.316 16.3826 202.651 17.5606 203.135 18.3459C203.62 19.1145 204.447 19.4987 205.616 19.4987C206.201 19.4987 206.719 19.3066 207.17 18.9223C207.621 18.538 207.847 17.9365 207.847 17.1178C207.847 16.4662 207.621 15.9148 207.17 15.4637C206.736 15.0125 206.017 14.4695 205.015 13.8346C204.196 13.3166 203.561 12.8906 203.11 12.5564C202.676 12.2222 202.308 11.8129 202.007 11.3283C201.707 10.8438 201.556 10.2757 201.556 9.62406C201.556 8.57143 201.907 7.76942 202.609 7.21805C203.311 6.66667 204.196 6.39098 205.265 6.39098Z" fill="#5E5E5E"/>
<path d="M218.129 6.39098C219.833 6.39098 221.204 6.95906 222.239 8.09524C223.292 9.2147 223.818 10.919 223.818 13.208C223.818 15.4971 223.292 17.2013 222.239 18.3208C221.204 19.4403 219.833 20 218.129 20C216.425 20 215.046 19.4403 213.994 18.3208C212.958 17.2013 212.44 15.4971 212.44 13.208C212.44 10.919 212.958 9.2147 213.994 8.09524C215.046 6.95906 216.425 6.39098 218.129 6.39098ZM218.129 6.89223C217.127 6.89223 216.333 7.41019 215.748 8.44611C215.163 9.46533 214.871 11.0526 214.871 13.208C214.871 15.3634 215.163 16.9507 215.748 17.9699C216.333 18.9891 217.127 19.4987 218.129 19.4987C219.132 19.4987 219.925 18.9891 220.51 17.9699C221.095 16.9507 221.387 15.3634 221.387 13.208C221.387 11.0526 221.095 9.46533 220.51 8.44611C219.925 7.41019 219.132 6.89223 218.129 6.89223Z" fill="#5E5E5E"/>
<path d="M231.985 6.39098C233.105 6.39098 234.074 6.65831 234.892 7.19298C235.678 7.71094 236.07 8.35422 236.07 9.12281C236.07 9.55723 235.945 9.89975 235.694 10.1504C235.444 10.401 235.126 10.5263 234.742 10.5263C234.358 10.5263 234.032 10.4177 233.765 10.2005C233.497 9.96658 233.364 9.65748 233.364 9.27318C233.364 8.92231 233.464 8.62991 233.664 8.39599C233.865 8.14536 234.115 7.97828 234.416 7.89474C234.249 7.59399 233.948 7.34336 233.514 7.14286C233.096 6.94236 232.645 6.8421 232.161 6.8421C231.542 6.8421 230.966 7.04261 230.431 7.44361C229.897 7.8279 229.454 8.47953 229.103 9.3985C228.752 10.3008 228.577 11.4954 228.577 12.9825C228.577 15.0543 228.911 16.5664 229.579 17.5188C230.247 18.4545 231.116 18.9223 232.186 18.9223C232.904 18.9223 233.581 18.7134 234.216 18.2957C234.867 17.878 235.402 17.2264 235.82 16.3409L236.296 16.5163C236.012 17.4687 235.477 18.2874 234.692 18.9724C233.923 19.6575 232.921 20 231.684 20C230.648 20 229.704 19.7327 228.852 19.198C228.017 18.6633 227.357 17.8947 226.872 16.8922C226.388 15.873 226.146 14.6951 226.146 13.3584C226.146 12.005 226.388 10.802 226.872 9.74937C227.374 8.69674 228.067 7.87803 228.953 7.29323C229.838 6.69173 230.849 6.39098 231.985 6.39098Z" fill="#5E5E5E"/>
<path d="M240.339 16.792C240.774 16.792 241.15 16.9507 241.467 17.2682C241.784 17.5856 241.943 17.9616 241.943 18.396C241.943 18.8304 241.784 19.2063 241.467 19.5238C241.15 19.8413 240.774 20 240.339 20C239.905 20 239.529 19.8413 239.211 19.5238C238.894 19.2063 238.735 18.8304 238.735 18.396C238.735 17.9616 238.894 17.5856 239.211 17.2682C239.529 16.9507 239.905 16.792 240.339 16.792Z" fill="#5E5E5E"/>
<path d="M166.705 1.55388C167.758 1.55388 168.627 1.86299 169.312 2.4812C170.014 3.08271 170.365 3.90142 170.365 4.93734C170.365 5.73935 170.147 6.4411 169.713 7.04261C169.279 7.6274 168.702 8.09524 167.984 8.44611C167.349 8.74687 166.112 9.18129 164.274 9.74937C165.21 10.1504 165.895 10.7268 166.33 11.4787C166.781 12.2139 167.006 13.0576 167.006 14.01C167.006 15.0459 166.697 16.0234 166.079 16.9424C165.461 17.8613 164.575 18.6048 163.422 19.1729C162.269 19.7243 160.916 20 159.362 20C157.908 20 156.555 19.7494 155.302 19.2481C154.066 18.7302 153.08 18.0033 152.345 17.0677C151.609 16.1153 151.242 15.0125 151.242 13.7594C151.242 12.6566 151.509 11.7293 152.044 10.9774C152.595 10.2089 153.222 9.63241 153.924 9.24812C154.625 8.84712 155.277 8.57143 155.878 8.42105C155.06 8.07018 154.433 7.60234 153.999 7.01754C153.564 6.43275 153.347 5.82289 153.347 5.18797C153.347 4.63659 153.506 4.12698 153.823 3.65915C154.157 3.1746 154.642 2.79031 155.277 2.50627C155.929 2.20551 156.697 2.05514 157.583 2.05514C158.702 2.05514 159.571 2.30576 160.189 2.80702C160.49 3.05764 160.716 3.34169 160.866 3.65915C161.033 3.9599 161.117 4.2523 161.117 4.53634C161.117 4.93734 160.974 5.26316 160.69 5.51378C160.406 5.7477 160.081 5.86466 159.713 5.86466C159.362 5.86466 159.053 5.75606 158.786 5.53885C158.535 5.30493 158.41 4.99582 158.41 4.61153C158.41 4.24394 158.535 3.93484 158.786 3.68421C159.036 3.41688 159.354 3.2665 159.738 3.23308C159.655 3.01587 159.437 2.83208 159.086 2.6817C158.752 2.51462 158.335 2.43108 157.833 2.43108C156.964 2.43108 156.263 2.69841 155.728 3.23308C155.193 3.75104 154.926 4.47786 154.926 5.41353C154.926 6.533 155.352 7.48538 156.204 8.27068C156.789 8.17043 157.307 8.1203 157.758 8.1203C158.059 8.1203 158.301 8.17043 158.485 8.27068C158.669 8.37093 158.761 8.51295 158.761 8.69674C158.761 8.84712 158.694 8.96408 158.56 9.04762C158.443 9.13116 158.276 9.17293 158.059 9.17293C157.792 9.17293 157.516 9.12281 157.232 9.02256C156.948 8.92231 156.614 8.78864 156.229 8.62155C154.057 9.27318 152.971 10.6433 152.971 12.7318C152.971 13.8513 153.264 14.8204 153.848 15.6391C154.433 16.4578 155.235 17.0844 156.254 17.5188C157.274 17.9365 158.418 18.1454 159.688 18.1454C160.874 18.1454 161.969 17.9616 162.971 17.594C163.99 17.2097 164.792 16.675 165.377 15.99C165.979 15.2882 166.279 14.4779 166.279 13.5589C166.279 12.8906 166.104 12.2139 165.753 11.5288C165.402 10.8438 164.734 10.3091 163.748 9.92481C162.445 10.3258 161.484 10.6433 160.866 10.8772C160.164 11.1445 159.621 11.4536 159.237 11.8045C158.853 12.1387 158.66 12.5564 158.66 13.0576C158.66 13.6591 158.903 14.1437 159.387 14.5113C159.888 14.8789 160.415 15.0627 160.966 15.0627C161.25 15.0627 161.559 15.0125 161.893 14.9123C162.228 14.812 162.42 14.6784 162.47 14.5113C162.152 14.4444 161.877 14.3108 161.643 14.1103C161.409 13.9098 161.292 13.6174 161.292 13.2331C161.292 12.8321 161.417 12.5146 161.668 12.2807C161.935 12.0468 162.269 11.9298 162.67 11.9298C163.071 11.9298 163.389 12.0551 163.623 12.3058C163.873 12.5564 163.999 12.8822 163.999 13.2832C163.999 13.9515 163.69 14.4779 163.071 14.8622C162.453 15.2464 161.768 15.4386 161.016 15.4386C160.198 15.4386 159.471 15.1963 158.836 14.7118C158.218 14.2105 157.908 13.4754 157.908 12.5063C157.908 11.6541 158.193 10.9357 158.761 10.3509C159.345 9.74937 160.214 9.24812 161.367 8.84712L163.147 8.3208C164.149 8.03676 164.985 7.78613 165.653 7.56892C166.321 7.35171 166.931 7.11779 167.482 6.86717C168.284 6.49958 168.844 6.12364 169.162 5.73935C169.479 5.35505 169.638 4.92899 169.638 4.46115C169.638 3.7594 169.345 3.16625 168.761 2.6817C168.193 2.18045 167.516 1.92983 166.731 1.92983C166.313 1.92983 166.062 2.00501 165.979 2.15539C166.196 2.25564 166.363 2.42272 166.48 2.65664C166.614 2.87385 166.68 3.09106 166.68 3.30827C166.68 3.65915 166.538 3.95155 166.254 4.18546C165.987 4.41938 165.661 4.53634 165.277 4.53634C164.926 4.53634 164.617 4.42774 164.35 4.21053C164.082 3.99332 163.949 3.68421 163.949 3.28321C163.949 2.6817 164.224 2.24729 164.776 1.97995C165.344 1.69591 165.987 1.55388 166.705 1.55388Z" fill="#5E5E5E"/>
<path d="M12.5063 1.90476C12.3893 3.09106 12.3308 4.1604 12.3308 5.11278C12.3308 5.9482 12.3559 6.63325 12.406 7.16792H11.8296C11.6959 5.88137 11.5288 4.92899 11.3283 4.31078C11.1278 3.67586 10.7769 3.21637 10.2757 2.93233C9.77444 2.63158 9.00585 2.4812 7.96992 2.4812H6.39098C5.78947 2.4812 5.3467 2.53133 5.06266 2.63158C4.79532 2.71512 4.61153 2.89891 4.51128 3.18296C4.41103 3.467 4.3609 3.92648 4.3609 4.5614V10.7268H6.19048C6.77527 10.7268 7.2264 10.5931 7.54386 10.3258C7.86132 10.0418 8.07018 9.71596 8.17043 9.34837C8.28739 8.96408 8.37928 8.48789 8.44611 7.9198L8.5213 7.41855H9.09774C9.04762 8.1203 9.02256 8.9056 9.02256 9.77444V10.9774C9.02256 11.8296 9.07268 13.0159 9.17293 14.5363H8.59649C8.57978 14.4194 8.52966 14.0184 8.44611 13.3333C8.36257 12.6316 8.12865 12.1053 7.74436 11.7544C7.37678 11.4035 6.85881 11.2281 6.19048 11.2281H4.3609V16.9925C4.3609 17.6274 4.42774 18.0869 4.5614 18.3709C4.69507 18.655 4.92899 18.8471 5.26316 18.9474C5.59733 19.0476 6.14035 19.1145 6.89223 19.1479V19.6491C6.02339 19.599 4.79532 19.5739 3.20802 19.5739C1.77109 19.5739 0.701754 19.599 0 19.6491V19.1479C0.601504 19.1145 1.03592 19.0476 1.30326 18.9474C1.5873 18.8471 1.77945 18.655 1.8797 18.3709C1.97995 18.0869 2.03008 17.6274 2.03008 16.9925V4.5614C2.03008 3.92648 1.97995 3.467 1.8797 3.18296C1.77945 2.89891 1.5873 2.70677 1.30326 2.60652C1.03592 2.50627 0.601504 2.43943 0 2.40602V1.90476C1.63743 1.95489 4.06015 1.97995 7.26817 1.97995C9.72431 1.97995 11.4703 1.95489 12.5063 1.90476Z" fill="#5E5E5E"/>
<path d="M25.3217 16.9424C25.3217 17.7109 25.4637 18.2707 25.7478 18.6216C26.0318 18.9724 26.5247 19.1479 27.2265 19.1479V19.6742C26.7085 19.6241 26.1905 19.599 25.6726 19.599C24.6199 19.599 23.7511 19.716 23.0661 19.9499V16.9925C22.6651 18.0284 22.097 18.7886 21.3618 19.2732C20.6266 19.7577 19.8246 20 18.9558 20C17.8196 20 16.9508 19.6825 16.3493 19.0476C16.0485 18.7134 15.8313 18.2874 15.6976 17.7694C15.5807 17.2515 15.5222 16.5831 15.5222 15.7644V9.47368C15.5222 8.7051 15.3802 8.14536 15.0961 7.79449C14.8121 7.44361 14.3192 7.26817 13.6174 7.26817V6.74185C14.1354 6.79198 14.6534 6.81704 15.1713 6.81704C16.224 6.81704 17.0928 6.70008 17.7778 6.46617V16.3158C17.7778 16.9507 17.8113 17.4687 17.8781 17.8697C17.9616 18.254 18.1371 18.5714 18.4044 18.8221C18.6885 19.0727 19.1145 19.198 19.6826 19.198C20.3175 19.198 20.894 18.9975 21.4119 18.5965C21.9299 18.1955 22.3309 17.6525 22.6149 16.9674C22.9157 16.2657 23.0661 15.4971 23.0661 14.6617V9.47368C23.0661 8.7051 22.924 8.14536 22.64 7.79449C22.356 7.44361 21.8631 7.26817 21.1613 7.26817V6.74185C21.6793 6.79198 22.1972 6.81704 22.7152 6.81704C23.7678 6.81704 24.6367 6.70008 25.3217 6.46617V16.9424Z" fill="#5E5E5E"/>
<path d="M32.491 17.3183C32.491 18.0033 32.633 18.4795 32.9171 18.7469C33.2011 18.9975 33.694 19.1228 34.3958 19.1228V19.6491C32.8586 19.5823 31.8477 19.5489 31.3632 19.5489C30.8786 19.5489 29.8678 19.5823 28.3306 19.6491V19.1228C29.0323 19.1228 29.5252 18.9975 29.8093 18.7469C30.0933 18.4795 30.2354 18.0033 30.2354 17.3183V3.00752C30.2354 2.23893 30.0933 1.6792 29.8093 1.32832C29.5252 0.977444 29.0323 0.802005 28.3306 0.802005V0.275689C28.8486 0.325814 29.3665 0.350877 29.8845 0.350877C30.9371 0.350877 31.8059 0.233918 32.491 0V17.3183Z" fill="#5E5E5E"/>
<path d="M39.0357 19.8246C37.983 19.8246 37.1977 19.5656 36.6798 19.0476C36.1785 18.5129 35.9279 17.7778 35.9279 16.8421C35.9279 16.0902 36.1284 15.472 36.5294 14.9875C36.9471 14.5029 37.4317 14.1186 37.983 13.8346C38.5511 13.5505 39.2947 13.2498 40.2136 12.9323C41.1493 12.6149 41.8427 12.3225 42.2938 12.0551C42.7449 11.7878 42.9705 11.4286 42.9705 10.9774V9.42356C42.9705 8.45447 42.7617 7.79449 42.3439 7.44361C41.9429 7.07602 41.3749 6.89223 40.6397 6.89223C39.4701 6.89223 38.643 7.19298 38.1585 7.79449C38.4926 7.87803 38.7683 8.05347 38.9855 8.3208C39.2195 8.58814 39.3364 8.92231 39.3364 9.32331C39.3364 9.74102 39.2028 10.0752 38.9354 10.3258C38.6681 10.5597 38.3256 10.6767 37.9079 10.6767C37.44 10.6767 37.0891 10.5347 36.8552 10.2506C36.6213 9.94987 36.5043 9.59064 36.5043 9.17293C36.5043 8.77193 36.5962 8.43776 36.78 8.17043C36.9805 7.90309 37.2729 7.63576 37.6572 7.36842C38.0582 7.08438 38.5678 6.85046 39.186 6.66667C39.8043 6.48287 40.481 6.39098 41.2161 6.39098C42.5194 6.39098 43.5052 6.70008 44.1735 7.3183C44.5912 7.70259 44.8669 8.17043 45.0006 8.7218C45.151 9.25647 45.2261 9.96658 45.2261 10.8521V17.8195C45.2261 18.2373 45.2846 18.538 45.4016 18.7218C45.5185 18.9056 45.719 18.9975 46.0031 18.9975C46.2036 18.9975 46.3874 18.9557 46.5545 18.8722C46.7383 18.7719 46.9304 18.6383 47.1309 18.4712L47.4066 18.8972C46.9722 19.2314 46.5962 19.4737 46.2788 19.6241C45.978 19.7577 45.5937 19.8246 45.1259 19.8246C44.3239 19.8246 43.7642 19.6241 43.4467 19.2231C43.1292 18.8221 42.9705 18.279 42.9705 17.594C42.4693 18.4294 41.8928 19.0142 41.2412 19.3484C40.5896 19.6658 39.8544 19.8246 39.0357 19.8246ZM40.1384 18.8221C41.2412 18.8221 42.1852 18.1871 42.9705 16.9173V12.005C42.8201 12.2389 42.6113 12.4311 42.3439 12.5815C42.0766 12.7318 41.6673 12.9323 41.1159 13.183C40.481 13.4503 39.963 13.7093 39.562 13.9599C39.1777 14.1938 38.8435 14.5196 38.5595 14.9373C38.2754 15.3551 38.1334 15.8897 38.1334 16.5414C38.1334 17.2932 38.3172 17.8613 38.6848 18.2456C39.0524 18.6299 39.5369 18.8221 40.1384 18.8221Z" fill="#5E5E5E"/>
<path d="M56.5807 6.39098C57.7503 6.39098 58.6358 6.70844 59.2373 7.34336C59.5548 7.67753 59.7804 8.09524 59.914 8.59649C60.0477 9.09774 60.1145 9.77444 60.1145 10.6266V17.3183C60.1145 18.0033 60.2566 18.4795 60.5406 18.7469C60.8247 18.9975 61.3176 19.1228 62.0193 19.1228V19.6491C60.4821 19.5823 59.4796 19.5489 59.0118 19.5489C58.544 19.5489 57.6083 19.5823 56.2048 19.6491V19.1228C56.823 19.1228 57.249 18.9975 57.483 18.7469C57.7336 18.4795 57.8589 18.0033 57.8589 17.3183V10.0752C57.8589 9.13952 57.7252 8.42941 57.4579 7.94486C57.1906 7.44361 56.6475 7.19298 55.8288 7.19298C55.1438 7.19298 54.5339 7.39348 53.9993 7.79449C53.4646 8.19549 53.0469 8.74687 52.7461 9.44862C52.4621 10.1337 52.3201 10.9023 52.3201 11.7544V17.3183C52.3201 18.0033 52.437 18.4795 52.6709 18.7469C52.9216 18.9975 53.356 19.1228 53.9742 19.1228V19.6491C52.5707 19.5823 51.635 19.5489 51.1672 19.5489C50.6993 19.5489 49.6968 19.5823 48.1597 19.6491V19.1228C48.8614 19.1228 49.3543 18.9975 49.6384 18.7469C49.9224 18.4795 50.0644 18.0033 50.0644 17.3183V9.47368C50.0644 8.7051 49.9224 8.14536 49.6384 7.79449C49.3543 7.44361 48.8614 7.26817 48.1597 7.26817V6.74185C48.6943 6.79198 49.2123 6.81704 49.7135 6.81704C50.7662 6.81704 51.635 6.70008 52.3201 6.46617V9.42356C52.7378 8.35422 53.3142 7.58563 54.0494 7.11779C54.8013 6.63325 55.645 6.39098 56.5807 6.39098Z" fill="#5E5E5E"/>
<path d="M69.2544 6.39098C70.9586 6.39098 72.3287 6.95906 73.3647 8.09524C74.4173 9.2147 74.9436 10.919 74.9436 13.208C74.9436 15.4971 74.4173 17.2013 73.3647 18.3208C72.3287 19.4403 70.9586 20 69.2544 20C67.5501 20 66.1717 19.4403 65.119 18.3208C64.0831 17.2013 63.5652 15.4971 63.5652 13.208C63.5652 10.919 64.0831 9.2147 65.119 8.09524C66.1717 6.95906 67.5501 6.39098 69.2544 6.39098ZM69.2544 6.89223C68.2519 6.89223 67.4582 7.41019 66.8734 8.44611C66.2886 9.46533 65.9962 11.0526 65.9962 13.208C65.9962 15.3634 66.2886 16.9507 66.8734 17.9699C67.4582 18.9891 68.2519 19.4987 69.2544 19.4987C70.2569 19.4987 71.0505 18.9891 71.6353 17.9699C72.2201 16.9507 72.5125 15.3634 72.5125 13.208C72.5125 11.0526 72.2201 9.46533 71.6353 8.44611C71.0505 7.41019 70.2569 6.89223 69.2544 6.89223Z" fill="#5E5E5E"/>
<path d="M94.4893 16.9173C94.4893 17.6859 94.6314 18.2456 94.9154 18.5965C95.1995 18.9474 95.6923 19.1228 96.3941 19.1228V19.6491C95.8761 19.599 95.3582 19.5739 94.8402 19.5739C93.7876 19.5739 92.9187 19.6909 92.2337 19.9248V17.6942C91.933 18.4461 91.4818 19.0226 90.8803 19.4236C90.2788 19.8079 89.5436 20 88.6748 20C87.0708 20 85.8093 19.4236 84.8903 18.2707C83.9881 17.1178 83.5453 15.4302 83.562 13.208C83.562 11.7544 83.8127 10.518 84.3139 9.49875C84.8319 8.46282 85.5169 7.68588 86.369 7.16792C87.2379 6.64996 88.1903 6.39098 89.2262 6.39098C89.8611 6.39098 90.4375 6.51629 90.9555 6.76692C91.4902 7.00084 91.9162 7.36842 92.2337 7.86967V3.00752C92.2337 2.23893 92.0917 1.6792 91.8076 1.32832C91.5236 0.977444 91.0307 0.802005 90.3289 0.802005V0.275689C90.8636 0.325814 91.3816 0.350877 91.8828 0.350877C92.9355 0.350877 93.8043 0.233918 94.4893 0V16.9173ZM89.4016 19.2481C90.0533 19.2481 90.638 18.9975 91.156 18.4962C91.674 17.995 92.0332 17.2849 92.2337 16.3659V8.89724C91.7826 7.61069 90.8469 6.96742 89.4267 6.96742C88.3908 6.96742 87.5553 7.50209 86.9204 8.57143C86.2855 9.62406 85.9764 11.1696 85.9931 13.208C85.9764 15.213 86.2604 16.7251 86.8452 17.7444C87.43 18.7469 88.2822 19.2481 89.4016 19.2481Z" fill="#5E5E5E"/>
<path d="M108.526 16.6416C108.225 17.5606 107.657 18.3542 106.822 19.0226C106.003 19.6742 105.009 20 103.839 20C102.653 20 101.625 19.7327 100.756 19.198C99.8875 18.6466 99.2192 17.8864 98.7514 16.9173C98.3002 15.9315 98.0747 14.7953 98.0747 13.5088C98.0747 12.0551 98.3086 10.7937 98.7764 9.72431C99.2443 8.65497 99.9042 7.83626 100.756 7.26817C101.609 6.68337 102.603 6.39098 103.739 6.39098C105.243 6.39098 106.395 6.85046 107.197 7.76942C108.016 8.67168 108.426 10.0501 108.426 11.9048H100.581C100.531 12.3726 100.506 12.9073 100.506 13.5088C100.506 14.6115 100.681 15.5723 101.032 16.391C101.4 17.2097 101.876 17.8446 102.461 18.2957C103.062 18.7302 103.689 18.9474 104.34 18.9474C105.142 18.9474 105.852 18.7552 106.471 18.3709C107.089 17.9866 107.607 17.3434 108.025 16.4411L108.526 16.6416ZM103.639 6.86717C102.853 6.86717 102.177 7.25146 101.609 8.02005C101.04 8.78864 100.69 9.92481 100.556 11.4286H106.02C106.053 10.1253 105.861 9.03926 105.443 8.17043C105.042 7.30159 104.441 6.86717 103.639 6.86717Z" fill="#5E5E5E"/>
<path d="M120.285 6.76692H123.994V7.26817H120.285V16.9674C120.285 17.7193 120.419 18.2623 120.686 18.5965C120.97 18.9307 121.371 19.0977 121.889 19.0977C122.407 19.0977 122.85 18.8889 123.217 18.4712C123.585 18.0535 123.894 17.3684 124.145 16.416L124.646 16.5414C124.228 18.8471 123.142 20 121.388 20C120.82 20 120.352 19.9332 119.984 19.7995C119.617 19.6658 119.291 19.457 119.007 19.1729C118.639 18.8053 118.38 18.3542 118.23 17.8195C118.096 17.2849 118.029 16.5664 118.029 15.6642V7.26817H115.623V6.76692H118.029V2.93233C118.965 2.89891 119.717 2.78195 120.285 2.58145V6.76692Z" fill="#5E5E5E"/>
<path d="M128.468 19.8246C127.416 19.8246 126.63 19.5656 126.112 19.0476C125.611 18.5129 125.36 17.7778 125.36 16.8421C125.36 16.0902 125.561 15.472 125.962 14.9875C126.38 14.5029 126.864 14.1186 127.416 13.8346C127.984 13.5505 128.727 13.2498 129.646 12.9323C130.582 12.6149 131.275 12.3225 131.726 12.0551C132.178 11.7878 132.403 11.4286 132.403 10.9774V9.42356C132.403 8.45447 132.194 7.79449 131.777 7.44361C131.376 7.07602 130.807 6.89223 130.072 6.89223C128.903 6.89223 128.076 7.19298 127.591 7.79449C127.925 7.87803 128.201 8.05347 128.418 8.3208C128.652 8.58814 128.769 8.92231 128.769 9.32331C128.769 9.74102 128.635 10.0752 128.368 10.3258C128.101 10.5597 127.758 10.6767 127.34 10.6767C126.873 10.6767 126.522 10.5347 126.288 10.2506C126.054 9.94987 125.937 9.59064 125.937 9.17293C125.937 8.77193 126.029 8.43776 126.213 8.17043C126.413 7.90309 126.705 7.63576 127.09 7.36842C127.491 7.08438 128 6.85046 128.619 6.66667C129.237 6.48287 129.914 6.39098 130.649 6.39098C131.952 6.39098 132.938 6.70008 133.606 7.3183C134.024 7.70259 134.299 8.17043 134.433 8.7218C134.584 9.25647 134.659 9.96658 134.659 10.8521V17.8195C134.659 18.2373 134.717 18.538 134.834 18.7218C134.951 18.9056 135.152 18.9975 135.436 18.9975C135.636 18.9975 135.82 18.9557 135.987 18.8722C136.171 18.7719 136.363 18.6383 136.563 18.4712L136.839 18.8972C136.405 19.2314 136.029 19.4737 135.711 19.6241C135.411 19.7577 135.026 19.8246 134.558 19.8246C133.756 19.8246 133.197 19.6241 132.879 19.2231C132.562 18.8221 132.403 18.279 132.403 17.594C131.902 18.4294 131.325 19.0142 130.674 19.3484C130.022 19.6658 129.287 19.8246 128.468 19.8246ZM129.571 18.8221C130.674 18.8221 131.618 18.1871 132.403 16.9173V12.005C132.253 12.2389 132.044 12.4311 131.777 12.5815C131.509 12.7318 131.1 12.9323 130.548 13.183C129.914 13.4503 129.396 13.7093 128.995 13.9599C128.61 14.1938 128.276 14.5196 127.992 14.9373C127.708 15.3551 127.566 15.8897 127.566 16.5414C127.566 17.2932 127.75 17.8613 128.117 18.2456C128.485 18.6299 128.969 18.8221 129.571 18.8221Z" fill="#5E5E5E"/>
<path d="M141.577 17.3183C141.577 18.0033 141.719 18.4795 142.003 18.7469C142.287 18.9975 142.78 19.1228 143.482 19.1228V19.6491C141.945 19.5823 140.934 19.5489 140.449 19.5489C139.965 19.5489 138.954 19.5823 137.417 19.6491V19.1228C138.119 19.1228 138.611 18.9975 138.895 18.7469C139.18 18.4795 139.322 18.0033 139.322 17.3183V3.00752C139.322 2.23893 139.18 1.6792 138.895 1.32832C138.611 0.977444 138.119 0.802005 137.417 0.802005V0.275689C137.935 0.325814 138.453 0.350877 138.971 0.350877C140.023 0.350877 140.892 0.233918 141.577 0V17.3183Z" fill="#5E5E5E"/>
</svg>
