<svg width="136" height="21" viewBox="0 0 136 21" fill="none" xmlns="http://www.w3.org/2000/svg">
<path d="M10.6094 19.8594C10.2109 20.1094 9.75781 20.2344 9.25 20.2344C8.74219 20.2344 8.28906 20.1094 7.89062 19.8594C7.49219 20.1094 7.12109 20.2344 6.77734 20.2344C6.44141 20.2344 6.15625 20.2031 5.92188 20.1406C5.69531 20.0859 5.49219 20.0078 5.3125 19.9062C4.9375 19.7031 4.75 19.4492 4.75 19.1445C4.75 18.9883 4.79297 18.8516 4.87891 18.7344C5.05078 18.8672 5.27734 18.9336 5.55859 18.9336C5.84766 18.9336 6.13672 18.8594 6.42578 18.7109C6.72266 18.5625 6.94531 18.332 7.09375 18.0195V15.7109C7.09375 15.3516 7.02344 15.0859 6.88281 14.9141C6.63281 14.6094 6.22656 14.3203 5.66406 14.0469C6.1875 13.8047 6.53125 13.5938 6.69531 13.4141C6.96094 13.1094 7.09375 12.7656 7.09375 12.3828V11.9609L2.38281 3.80469C1.92969 3.39844 1.52734 3.19531 1.17578 3.19531C0.824219 3.19531 0.546875 3.26172 0.34375 3.39453C0.257812 3.33203 0.214844 3.21484 0.214844 3.04297C0.214844 2.87109 0.242188 2.71484 0.296875 2.57422C0.351562 2.42578 0.4375 2.29687 0.554688 2.1875C0.804688 1.95312 1.16797 1.83594 1.64453 1.83594C2.12109 1.83594 2.54297 1.97266 2.91016 2.24609C3.30078 1.97266 3.76172 1.83594 4.29297 1.83594C4.83203 1.83594 5.27344 1.96875 5.61719 2.23438C6.03125 1.96875 6.41797 1.83594 6.77734 1.83594C7.13672 1.83594 7.42578 1.86328 7.64453 1.91797C7.86328 1.96484 8.05469 2.03906 8.21875 2.14062C8.57031 2.34375 8.75391 2.625 8.76953 2.98438C8.76953 3.20313 8.72656 3.33984 8.64062 3.39453C8.42969 3.26172 8.21875 3.19531 8.00781 3.19531C7.55469 3.19531 7.1875 3.27734 6.90625 3.44141L10.4102 10.168L13.7383 3.42969C13.418 3.23437 13.0469 3.13672 12.625 3.13672C12.2109 3.13672 11.8906 3.20313 11.6641 3.33594C11.5859 3.21875 11.5469 3.03516 11.5469 2.78516C11.5469 2.53516 11.6523 2.31641 11.8633 2.12891C12.0742 1.93359 12.375 1.83594 12.7656 1.83594C13.1562 1.83594 13.4922 1.9375 13.7734 2.14062C14.0234 1.9375 14.3281 1.83594 14.6875 1.83594C15.0469 1.83594 15.3477 1.92187 15.5898 2.09375C15.9336 1.92187 16.2773 1.83594 16.6211 1.83594C16.9648 1.83594 17.2383 1.94922 17.4414 2.17578C17.6523 2.39453 17.7578 2.67969 17.7578 3.03125C17.7578 3.21094 17.7148 3.33203 17.6289 3.39453C17.4258 3.26172 17.1758 3.19531 16.8789 3.19531C16.3633 3.19531 15.9062 3.33594 15.5078 3.61719L11.4062 11.7383V12.3828C11.4062 12.7656 11.4883 13.0508 11.6523 13.2383C11.918 13.5352 12.3125 13.8047 12.8359 14.0469C12.2734 14.3203 11.9141 14.5508 11.7578 14.7383C11.5234 15.0273 11.4062 15.3516 11.4062 15.7109V18.0195C11.5469 18.332 11.7617 18.5625 12.0508 18.7109C12.3477 18.8594 12.6406 18.9336 12.9297 18.9336C13.2188 18.9336 13.4492 18.8672 13.6211 18.7344C13.707 18.8516 13.75 18.9883 13.75 19.1445C13.75 19.293 13.6992 19.4336 13.5977 19.5664C13.4961 19.6992 13.3594 19.8125 13.1875 19.9062C12.7969 20.125 12.3672 20.2344 11.8984 20.2344C11.4375 20.2344 11.0078 20.1094 10.6094 19.8594ZM8.21875 16.8945C8.63281 16.7383 8.85938 16.125 8.89844 15.0547C8.90625 14.7266 8.91016 14.3906 8.91016 14.0469V12.0898C8.91016 11.7148 8.83984 11.4062 8.69922 11.1641L6.29688 6.81641C5.96094 6.23047 5.71875 5.86719 5.57031 5.72656C5.33594 5.50781 5.05469 5.38281 4.72656 5.35156L8.24219 11.8672V12.4414C8.24219 12.9023 8.21094 13.2188 8.14844 13.3906C8.05469 13.6875 7.76562 13.9102 7.28125 14.0586C7.80469 14.2539 8.10156 14.4922 8.17188 14.7734C8.22656 14.9922 8.25391 15.25 8.25391 15.5469C8.25391 15.8359 8.24609 16.0898 8.23047 16.3086C8.22266 16.5273 8.21875 16.7227 8.21875 16.8945ZM28.9609 20.2344C27.8594 20.2344 27.2656 19.4727 27.1797 17.9492C26.7812 18.668 26.2422 19.2383 25.5625 19.6602C24.8906 20.082 24.1641 20.293 23.3828 20.293C22.6094 20.293 21.9805 20.1875 21.4961 19.9766C21.0117 19.7656 20.6094 19.4609 20.2891 19.0625C19.6641 18.2812 19.3516 17.1719 19.3516 15.7344V15.0078C19.3516 14.1016 18.875 13.4297 17.9219 12.9922C18.4844 12.7188 18.8438 12.4883 19 12.3008C19.2344 12.0117 19.3516 11.6875 19.3516 11.3281V9.74609C19.3516 9.08203 19.125 8.72266 18.6719 8.66797C18.5391 8.65234 18.3711 8.64453 18.168 8.64453C17.9648 8.64453 17.7773 8.71094 17.6055 8.84375C17.4961 8.69531 17.4414 8.54297 17.4414 8.38672C17.4414 8.22266 17.4805 8.04297 17.5586 7.84766C17.6445 7.64453 17.7734 7.45312 17.9453 7.27344C18.3516 6.85156 18.8242 6.64062 19.3633 6.64062C19.9023 6.64062 20.4102 6.73047 20.8867 6.91016C21.2305 6.41797 21.6367 6.17188 22.1055 6.17188C22.9102 6.17188 23.3125 6.59375 23.3125 7.4375V15.0664C23.3125 16.5508 23.6562 17.4414 24.3438 17.7383C24.5625 17.832 24.8047 17.8789 25.0703 17.8789C25.3438 17.8789 25.5898 17.8242 25.8086 17.7148C26.0273 17.5977 26.2188 17.4414 26.3828 17.2461C26.6875 16.8633 26.8828 16.3398 26.9688 15.6758V9.74609C26.9688 8.85547 26.6055 8.41016 25.8789 8.41016C25.6133 8.41016 25.3945 8.47656 25.2227 8.60938C25.1133 8.46094 25.0586 8.30859 25.0586 8.15234C25.0586 7.98828 25.0977 7.82031 25.1758 7.64844C25.2617 7.46875 25.3906 7.30469 25.5625 7.15625C25.9453 6.8125 26.4102 6.64062 26.957 6.64062C27.5117 6.64062 28.0273 6.73047 28.5039 6.91016C28.8477 6.41797 29.2539 6.17188 29.7227 6.17188C30.5273 6.17188 30.9297 6.59375 30.9297 7.4375V11.3281C30.9297 11.6875 31 11.9531 31.1406 12.125C31.3906 12.4297 31.7969 12.7188 32.3594 12.9922C31.4062 13.4297 30.9297 14.1016 30.9297 15.0078V18.0312C31.0781 18.6328 31.4023 18.9336 31.9023 18.9336C32.168 18.9336 32.3867 18.8672 32.5586 18.7344C32.668 18.8828 32.7227 19.0703 32.7227 19.2969C32.7227 19.5156 32.6094 19.7266 32.3828 19.9297C32.1641 20.1328 31.8164 20.2344 31.3398 20.2344C30.8711 20.2344 30.4258 20.1094 30.0039 19.8594C29.6914 20.1094 29.3438 20.2344 28.9609 20.2344ZM28.082 16.8945C28.5352 16.7148 28.7734 15.8516 28.7969 14.3047C28.7969 13.9766 28.7969 13.6016 28.7969 13.1797C28.7969 12.7578 28.793 12.3984 28.7852 12.1016C28.7852 11.7969 28.7812 11.5078 28.7734 11.2344C28.7422 10.25 28.6523 9.66406 28.5039 9.47656C28.3555 9.28125 28.2148 9.15234 28.082 9.08984V16.8945ZM21.0742 12.9922L21.1094 11.4453C21.1094 10.75 21.0859 10.2891 21.0391 10.0625C20.9062 9.46875 20.7188 9.14453 20.4766 9.08984V9.85156C20.4766 11.1719 20.4453 11.9492 20.3828 12.1836C20.3281 12.4102 20.2344 12.582 20.1016 12.6992C19.9766 12.8086 19.7891 12.9062 19.5391 12.9922C20.0078 13.1562 20.2734 13.3555 20.3359 13.5898C20.4297 13.9648 20.4766 14.8125 20.4766 16.1328V16.8945C20.7109 16.8398 20.9023 16.4922 21.0508 15.8516C21.0898 15.6719 21.1094 15.2344 21.1094 14.5391L21.0742 12.9922ZM44.043 16.4609C44.2148 16.1328 44.5312 15.9688 44.9922 15.9688C45.3047 15.9688 45.5469 16.0977 45.7188 16.3555C45.8594 16.5586 45.9297 16.8086 45.9297 17.1055C45.9297 17.3945 45.8555 17.6875 45.707 17.9844C45.5664 18.2812 45.375 18.5508 45.1328 18.793C44.8906 19.0352 44.6094 19.25 44.2891 19.4375C43.9766 19.625 43.6406 19.7812 43.2812 19.9062C42.5547 20.1641 41.7969 20.293 41.0078 20.293C40.2188 20.293 39.4727 20.1562 38.7695 19.8828C38.0664 19.6016 37.4609 19.2109 36.9531 18.7109C35.9297 17.7031 35.3125 16.3516 35.1016 14.6562C35.0469 14.2734 34.957 14 34.832 13.8359C34.5977 13.5469 34.2109 13.2695 33.6719 13.0039C34.5 12.6289 34.9766 11.9531 35.1016 10.9766C35.3047 9.48438 35.9688 8.30469 37.0938 7.4375C38.1719 6.59375 39.4844 6.17188 41.0312 6.17188C42.3672 6.17188 43.4922 6.57812 44.4062 7.39062C45.2734 8.15625 45.707 9.04297 45.707 10.0508C45.707 10.6211 45.9062 10.9844 46.3047 11.1406C46.0703 11.5234 45.7422 11.7148 45.3203 11.7148C45.1719 11.7148 45.0352 11.6992 44.9102 11.668C44.6367 12.0664 44.2422 12.3359 43.7266 12.4766C43.5625 12.5156 43.4062 12.5352 43.2578 12.5352C43.1094 12.5352 42.9336 12.5078 42.7305 12.4531C42.5273 12.3906 42.3867 12.3086 42.3086 12.207C42.5352 12.1133 42.668 11.8789 42.707 11.5039C42.6602 11.5117 42.6172 11.5156 42.5781 11.5156H42.4844C41.9531 11.5156 41.625 11.2109 41.5 10.6016C42.0781 10.6016 42.5 10.3789 42.7656 9.93359C42.8594 9.77734 42.9062 9.58594 42.9062 9.35938C42.9062 8.85938 42.7461 8.46875 42.4258 8.1875C42.1055 7.89844 41.6602 7.75391 41.0898 7.75391C39.7695 7.75391 39.1094 8.60547 39.1094 10.3086V16.0039C39.1094 17.332 39.6172 18.1719 40.6328 18.5234C40.9297 18.6328 41.2656 18.6875 41.6406 18.6875C42.0156 18.6875 42.3555 18.6406 42.6602 18.5469C42.9727 18.4531 43.2344 18.3242 43.4453 18.1602C43.875 17.8242 44.0898 17.3984 44.0898 16.8828C44.0898 16.7266 44.0742 16.5859 44.043 16.4609ZM37.1523 16.8945C37.2617 16.8086 37.3164 16.7109 37.3164 16.6016C37.3164 16.4297 37.2812 16.2109 37.2109 15.9453C36.8906 14.7188 36.7305 13.8672 36.7305 13.3906C36.7305 12.9062 36.7461 12.5312 36.7773 12.2656C36.8086 11.9922 36.8516 11.7188 36.9062 11.4453C37 10.9141 37.1016 10.4453 37.2109 10.0391C37.2812 9.77344 37.3164 9.59375 37.3164 9.5C37.3164 9.3125 37.2617 9.17578 37.1523 9.08984C36.8242 9.48047 36.5742 10.0039 36.4023 10.6602C36.2305 11.3164 36.0898 11.8945 35.9805 12.3945C35.9414 12.5977 35.7109 12.7969 35.2891 12.9922C35.7109 13.1875 35.9414 13.3867 35.9805 13.5898C36.2695 14.9102 36.5078 15.75 36.6953 16.1094C36.8828 16.4688 37.0352 16.7305 37.1523 16.8945ZM55.4922 18.8867C54.7812 19.8242 53.7148 20.293 52.293 20.293C50.5586 20.293 49.2578 19.7734 48.3906 18.7344C48.0156 18.2891 47.7578 17.793 47.6172 17.2461C47.5391 16.918 47.4023 16.668 47.207 16.4961C47.0117 16.3164 46.7695 16.1562 46.4805 16.0156C47.043 15.7578 47.4453 15.2734 47.6875 14.5625C47.9453 13.8125 48.375 13.2695 48.9766 12.9336C49.625 12.582 50.3398 12.3984 51.1211 12.3828C51.9023 12.3594 52.4805 12.332 52.8555 12.3008C53.2305 12.2695 53.5625 12.2188 53.8516 12.1484C54.3906 12.0234 54.8125 11.793 55.1172 11.457V9.69922C55.1172 8.92578 54.957 8.35938 54.6367 8C54.3242 7.64062 53.8438 7.46094 53.1953 7.46094C52.5547 7.46094 52.0781 7.58203 51.7656 7.82422C51.4609 8.05859 51.3086 8.375 51.3086 8.77344C51.3086 9.38281 51.6211 9.67969 52.2461 9.66406C52.1211 10.2734 51.793 10.5781 51.2617 10.5781C51.1055 10.5781 50.9531 10.5508 50.8047 10.4961V10.5312C50.8047 10.7344 50.8984 10.8633 51.0859 10.918C50.8906 11.2148 50.5625 11.3594 50.1016 11.3516C49.6406 11.3438 49.2812 11.0977 49.0234 10.6133C48.9062 10.6445 48.7695 10.6602 48.6133 10.6602C48.4648 10.6602 48.2969 10.6094 48.1094 10.5078C47.9297 10.4062 47.7852 10.2656 47.6758 10.0859C48.0664 9.85156 48.3047 9.48828 48.3906 8.99609C48.4844 8.39453 48.9648 7.78516 49.832 7.16797C50.8789 6.42578 52.2148 6.05469 53.8398 6.05469C56.5352 6.05469 58.1797 6.88281 58.7734 8.53906C58.9688 9.09375 59.0664 9.75 59.0664 10.5078V11.457C59.0664 11.8398 59.1602 12.1523 59.3477 12.3945C59.543 12.6367 59.8711 12.8359 60.332 12.9922C59.8398 13.2188 59.5234 13.4219 59.3828 13.6016C59.1719 13.875 59.0664 14.1875 59.0664 14.5391V18.0547C59.293 18.6406 59.6172 18.9336 60.0391 18.9336C60.3047 18.9336 60.5234 18.8672 60.6953 18.7344C60.8047 18.8828 60.8594 19.0703 60.8594 19.2969C60.8594 19.5156 60.7461 19.7266 60.5195 19.9297C60.3008 20.1328 59.9688 20.2344 59.5234 20.2344C59.0781 20.2344 58.6641 20.1094 58.2812 19.8594C57.9453 20.1094 57.6445 20.2344 57.3789 20.2344C57.1211 20.2344 56.8945 20.207 56.6992 20.1523C56.5117 20.1055 56.3359 20.0273 56.1719 19.918C55.8047 19.6758 55.5781 19.332 55.4922 18.8867ZM56.2305 16.8945C56.6836 16.7148 56.9219 15.8516 56.9453 14.3047C56.9453 13.9766 56.9453 13.6016 56.9453 13.1797C56.9453 12.7578 56.9414 12.3984 56.9336 12.1016C56.9336 11.7969 56.9297 11.5078 56.9219 11.2344C56.8906 10.25 56.8008 9.66406 56.6523 9.47656C56.5039 9.28125 56.3633 9.15234 56.2305 9.08984V16.8945ZM51.9062 16.0625C51.9062 16.3906 51.9414 16.7109 52.0117 17.0234C52.082 17.3359 52.1875 17.6094 52.3281 17.8438C52.6406 18.3359 53.082 18.582 53.6523 18.582C54.082 18.582 54.4375 18.4062 54.7188 18.0547C54.9844 17.7109 55.1172 17.2695 55.1172 16.7305V12.9102C54.6172 13.1992 53.9766 13.3984 53.1953 13.5078C52.3359 13.6406 51.9062 14.4922 51.9062 16.0625ZM50.1484 18.6992C50.2266 18.6445 50.2656 18.5742 50.2656 18.4883C50.2656 18.3711 50.2109 18.207 50.1016 17.9961C49.7109 17.2773 49.5156 16.6875 49.5156 16.2266C49.5156 15.7656 49.5312 15.4336 49.5625 15.2305C49.6016 15.0273 49.6484 14.8555 49.7031 14.7148C49.7656 14.5664 49.832 14.4375 49.9023 14.3281C49.9805 14.2188 50.0469 14.1211 50.1016 14.0352C50.2031 13.8555 50.2539 13.7344 50.2539 13.6719C50.2539 13.6016 50.2188 13.543 50.1484 13.4961C49.8281 13.6445 49.5938 13.8203 49.4453 14.0234C49.1797 14.3828 48.9844 14.8477 48.8594 15.418C48.8281 15.582 48.5547 15.7812 48.0391 16.0156C48.5391 16.2422 48.8125 16.4414 48.8594 16.6133C49.125 17.543 49.5547 18.2383 50.1484 18.6992ZM73.9141 19.8711C73.5078 20.1133 73.0391 20.2344 72.5078 20.2344C71.9844 20.2344 71.5234 20.1094 71.125 19.8594C70.7266 20.1094 70.3555 20.2344 70.0117 20.2344C69.6758 20.2344 69.3984 20.2031 69.1797 20.1406C68.9609 20.0859 68.7734 20.0078 68.6172 19.9062C68.2734 19.7031 68.1016 19.4492 68.1016 19.1445C68.1016 18.9883 68.1445 18.8516 68.2305 18.7344C68.4023 18.8672 68.6211 18.9336 68.8867 18.9336C69.582 18.9336 70.0625 18.6367 70.3281 18.043V12.3008C70.3281 11.9492 70.2578 11.6875 70.1172 11.5156C69.875 11.2266 69.4688 10.9414 68.8984 10.6602C69.4297 10.418 69.7734 10.2031 69.9297 10.0156C70.1953 9.71094 70.3281 9.36719 70.3281 8.98438V4.03906C70.0625 3.4375 69.582 3.13672 68.8867 3.13672C68.5664 3.13672 68.3203 3.20313 68.1484 3.33594C68.0625 3.21875 68.0195 3.08594 68.0195 2.9375C68.0195 2.78125 68.0664 2.63672 68.1602 2.50391C68.2617 2.37109 68.3984 2.25781 68.5703 2.16406C68.9375 1.94531 69.3555 1.83594 69.8242 1.83594C70.3008 1.83594 70.7344 1.96484 71.125 2.22266C71.5312 1.96484 71.9961 1.83594 72.5195 1.83594C73.0508 1.83594 73.5312 1.99219 73.9609 2.30469C74.8281 1.99219 75.8594 1.83594 77.0547 1.83594C77.8125 1.83594 78.4609 1.91406 79 2.07031L80.0078 2.35156C80.1328 2.38281 80.2539 2.39844 80.3711 2.39844C80.5898 2.39844 80.6992 2.24219 80.6992 1.92969C80.6992 1.85156 80.6719 1.71875 80.6172 1.53125C80.8359 1.49219 81.1133 1.47266 81.4492 1.47266C81.7852 1.47266 82.0703 1.58594 82.3047 1.8125C82.5391 2.03125 82.6562 2.35938 82.6562 2.79688C82.6562 3.22656 82.5703 3.55859 82.3984 3.79297C82.6328 4.15234 82.75 4.57422 82.75 5.05859C82.75 5.54297 82.5938 5.96094 82.2812 6.3125C82.3828 6.5625 82.4336 6.81641 82.4336 7.07422C82.4336 7.32422 82.3984 7.54688 82.3281 7.74219C82.2578 7.9375 82.168 8.10156 82.0586 8.23438C81.8398 8.5 81.5781 8.63281 81.2734 8.63281C81 8.63281 80.7383 8.56641 80.4883 8.43359C80.5898 8.22266 80.6406 7.97266 80.6406 7.68359C80.6406 7.38672 80.625 7.14062 80.5938 6.94531C80.5703 6.74219 80.5312 6.53125 80.4766 6.3125C80.3672 5.82031 80.1836 5.33594 79.9258 4.85938C79.4102 3.89844 78.6016 3.41797 77.5 3.41797C76.1328 3.41797 75.1797 3.77344 74.6406 4.48438V9.89844C74.8906 10.0391 75.1211 10.1094 75.332 10.1094C75.543 10.1094 75.7148 10.1055 75.8477 10.0977C75.9805 10.0898 76.1133 10.0781 76.2461 10.0625C76.582 10.0234 76.8359 9.96094 77.0078 9.875C77.3438 9.71875 77.5117 9.36719 77.5117 8.82031C77.5117 8.26562 77.4297 7.85156 77.2656 7.57812C77.3906 7.46875 77.5859 7.41406 77.8516 7.41406C78.375 7.41406 78.7539 7.68359 78.9883 8.22266C79.0742 8.41797 79.1172 8.625 79.1172 8.84375C79.1172 9.05469 79.0703 9.29297 78.9766 9.55859C79.2969 9.92578 79.457 10.3633 79.457 10.8711C79.457 11.3711 79.2969 11.8047 78.9766 12.1719C79.0703 12.4375 79.1172 12.6797 79.1172 12.8984C79.1172 13.1094 79.0742 13.3125 78.9883 13.5078C78.9023 13.7031 78.7969 13.8594 78.6719 13.9766C78.4297 14.1953 78.1562 14.3047 77.8516 14.3047C77.6328 14.3047 77.4375 14.2422 77.2656 14.1172C77.4297 13.8438 77.5117 13.5234 77.5117 13.1562C77.5117 12.4297 77.3125 11.9805 76.9141 11.8086C76.5781 11.6758 76.1758 11.6094 75.707 11.6094C75.2461 11.6094 74.8906 11.6797 74.6406 11.8203V18.0078C74.9375 18.625 75.4961 18.9336 76.3164 18.9336C76.582 18.9336 76.8008 18.8672 76.9727 18.7344C77.0586 18.8516 77.1016 18.9883 77.1016 19.1445C77.1016 19.293 77.0547 19.4336 76.9609 19.5664C76.875 19.6992 76.75 19.8125 76.5859 19.9062C76.2344 20.125 75.8125 20.2344 75.3203 20.2344C74.8359 20.2344 74.3672 20.1133 73.9141 19.8711ZM71.4531 16.8945C71.8438 16.7461 72.0625 16.2344 72.1094 15.3594C72.1484 14.4844 72.168 13.2734 72.168 11.7266C72.168 10.1797 72.1641 9.15234 72.1562 8.64453C72.1562 8.12891 72.1523 7.71484 72.1445 7.40234C72.1211 6.48047 72.0312 5.92578 71.875 5.73828C71.7266 5.54297 71.5859 5.41406 71.4531 5.35156C71.4531 8.07031 71.4062 9.61719 71.3125 9.99219C71.2031 10.3047 70.9375 10.5273 70.5156 10.6602C70.9844 10.8242 71.25 11.0234 71.3125 11.2578C71.4062 11.6328 71.4531 13.0039 71.4531 15.3711V16.8945ZM87.3789 4.49609C86.9805 4.49609 86.5938 4.39062 86.2188 4.17969C85.8516 3.96875 85.5703 3.6875 85.375 3.33594C85.1641 2.97656 84.8828 2.70312 84.5312 2.51562C84.4219 2.46094 84.2969 2.40234 84.1562 2.33984L84.5547 2.09375C84.9297 1.85938 85.207 1.57422 85.3867 1.23828C85.5664 0.902344 85.8359 0.640625 86.1953 0.453125C86.5625 0.257812 86.957 0.160156 87.3789 0.160156C88.2539 0.160156 88.8867 0.527344 89.2773 1.26172C89.543 1.74609 89.9531 2.10547 90.5078 2.33984C90.3906 2.41016 90.2734 2.47266 90.1562 2.52734C90.0469 2.58203 89.9414 2.64453 89.8398 2.71484C89.6133 2.87109 89.4102 3.10156 89.2305 3.40625C89.0586 3.71094 88.8047 3.96875 88.4688 4.17969C88.1406 4.39062 87.7773 4.49609 87.3789 4.49609ZM86.7578 3.06641C86.7109 2.98047 86.6719 2.88281 86.6406 2.77344C86.6172 2.65625 86.6055 2.45313 86.6055 2.16406C86.6055 1.875 86.7539 1.50781 87.0508 1.0625C86.7617 1.0625 86.5586 1.11719 86.4414 1.22656C86.3242 1.32813 86.2344 1.41797 86.1719 1.49609C86.1172 1.56641 86.0664 1.64062 86.0195 1.71875C85.9805 1.78906 85.9297 1.86719 85.8672 1.95312C85.7188 2.16406 85.5977 2.29297 85.5039 2.33984C85.6289 2.41016 85.7422 2.52344 85.8438 2.67969C85.9531 2.82813 86.0781 2.98438 86.2188 3.14844C86.4297 3.40625 86.707 3.53516 87.0508 3.53516C87.0039 3.44922 86.9531 3.37109 86.8984 3.30078C86.8516 3.22266 86.8047 3.14453 86.7578 3.06641ZM86.207 19.8594C85.8477 20.1094 85.4375 20.2344 84.9766 20.2344C84.5234 20.2344 84.1836 20.1328 83.957 19.9297C83.7383 19.7266 83.6289 19.5312 83.6289 19.3438C83.6289 19.0859 83.6836 18.8828 83.793 18.7344C83.9648 18.8672 84.2188 18.9336 84.5547 18.9336C84.8906 18.9336 85.1797 18.7148 85.4219 18.2773V14.5391C85.4219 14.1953 85.3516 13.9453 85.2109 13.7891C84.9844 13.5547 84.5781 13.293 83.9922 13.0039C84.5391 12.7539 84.8867 12.5547 85.0352 12.4062C85.293 12.1484 85.4219 11.832 85.4219 11.457V9.74609C85.4219 9.08203 85.1953 8.72266 84.7422 8.66797C84.6094 8.65234 84.4414 8.64453 84.2383 8.64453C84.0352 8.64453 83.8477 8.71094 83.6758 8.84375C83.5664 8.69531 83.5117 8.54297 83.5117 8.38672C83.5117 8.22266 83.5508 8.04297 83.6289 7.84766C83.7148 7.64453 83.8438 7.45312 84.0156 7.27344C84.4219 6.85156 84.8906 6.64062 85.4219 6.64062C85.9531 6.64062 86.4336 6.73438 86.8633 6.92188C87.2461 6.42188 87.6836 6.17188 88.1758 6.17188C88.9805 6.17188 89.3828 6.59375 89.3828 7.4375V11.457C89.3828 11.832 89.4648 12.1016 89.6289 12.2656C89.8711 12.5078 90.2656 12.7539 90.8125 13.0039C90.2266 13.293 89.8594 13.5117 89.7109 13.6602C89.4922 13.9023 89.3828 14.1953 89.3828 14.5391V18.3125C89.6406 18.7266 89.9336 18.9336 90.2617 18.9336C90.5898 18.9336 90.8398 18.8672 91.0117 18.7344C91.1211 18.8828 91.1758 19.0703 91.1758 19.2969C91.1758 19.5156 91.0625 19.7266 90.8359 19.9297C90.6172 20.1328 90.2852 20.2344 89.8398 20.2344C89.3945 20.2344 88.9805 20.1094 88.5977 19.8594C88.2773 20.1094 87.8906 20.2344 87.4375 20.2344C86.9844 20.2344 86.5742 20.1094 86.207 19.8594ZM87.2148 14.3047C87.2227 14.0391 87.2266 13.8164 87.2266 13.6367C87.2344 13.457 87.2383 13.3125 87.2383 13.2031V12.8867C87.2383 12.7695 87.2344 12.6172 87.2266 12.4297C87.2266 12.2422 87.2227 12.0352 87.2148 11.8086C87.2148 11.582 87.2109 11.3594 87.2031 11.1406C87.1719 10.6016 87.1328 10.2305 87.0859 10.0273C86.9922 9.57422 86.8125 9.26172 86.5469 9.08984V9.85156C86.5469 11.1719 86.5156 11.9492 86.4531 12.1836C86.3984 12.4102 86.3047 12.582 86.1719 12.6992C86.0469 12.8086 85.8594 12.9062 85.6094 12.9922C86.0781 13.1562 86.3438 13.3555 86.4062 13.5898C86.5 13.9648 86.5469 14.8125 86.5469 16.1328V16.8945C86.9062 16.6602 87.1094 16.1797 87.1562 15.4531C87.1953 14.9531 87.2148 14.5703 87.2148 14.3047ZM94.668 19.8594C94.3086 20.1094 93.8984 20.2344 93.4375 20.2344C92.9844 20.2344 92.6445 20.1328 92.418 19.9297C92.1992 19.7266 92.0898 19.5312 92.0898 19.3438C92.0898 19.0859 92.1445 18.8828 92.2539 18.7344C92.4258 18.8672 92.6445 18.9336 92.9102 18.9336C93.3633 18.9336 93.6875 18.6719 93.8828 18.1484V14.5391C93.8828 14.1953 93.8125 13.9453 93.6719 13.7891C93.4453 13.5547 93.0391 13.293 92.4531 13.0039C93 12.7539 93.3516 12.5508 93.5078 12.3945C93.7578 12.1367 93.8828 11.8203 93.8828 11.4453V4.82422C93.8828 3.93359 93.5195 3.48828 92.793 3.48828C92.5273 3.48828 92.3086 3.55469 92.1367 3.6875C92.0273 3.53906 91.9727 3.38672 91.9727 3.23047C91.9727 3.06641 92.0117 2.91016 92.0898 2.76172C92.1758 2.61328 92.3047 2.47656 92.4766 2.35156C92.8438 2.08594 93.3086 1.95312 93.8711 1.95312C94.4336 1.95312 94.8711 1.98828 95.1836 2.05859C95.6133 1.51953 96.0977 1.25 96.6367 1.25C97.418 1.25 97.8086 1.67188 97.8086 2.51562V11.4453C97.8086 11.8203 97.8906 12.0898 98.0547 12.2539C98.2969 12.5039 98.6914 12.7539 99.2383 13.0039C98.6523 13.293 98.2852 13.5117 98.1367 13.6602C97.918 13.9023 97.8086 14.1953 97.8086 14.5391V18.1484C97.9961 18.6719 98.3203 18.9336 98.7812 18.9336C99.0469 18.9336 99.2656 18.8672 99.4375 18.7344C99.5469 18.8828 99.6016 19.0703 99.6016 19.2969C99.6016 19.5156 99.4883 19.7266 99.2617 19.9297C99.043 20.1328 98.7109 20.2344 98.2656 20.2344C97.8203 20.2344 97.4062 20.1094 97.0234 19.8594C96.7031 20.1094 96.3203 20.2344 95.875 20.2344C95.4375 20.2344 95.0352 20.1094 94.668 19.8594ZM95.0078 16.8828C95.3594 16.6562 95.5664 16.1602 95.6289 15.3945C95.6523 15.0586 95.668 14.6836 95.6758 14.2695C95.6836 13.8555 95.6875 13.5625 95.6875 13.3906C95.6953 13.2109 95.6992 13.0781 95.6992 12.9922V11.9375C95.6992 11.6484 95.6953 11.3203 95.6875 10.9531V9.80469C95.6641 7.73438 95.625 6.58203 95.5703 6.34766C95.4609 5.85547 95.2734 5.52344 95.0078 5.35156V9.30078C95.0078 10.918 94.9883 11.8203 94.9492 12.0078C94.918 12.1875 94.8906 12.3203 94.8672 12.4062C94.7969 12.6484 94.5312 12.8477 94.0703 13.0039C94.5391 13.168 94.8047 13.3633 94.8672 13.5898C94.9609 13.9648 95.0078 14.8086 95.0078 16.1211V16.8828ZM103.352 19.8594C102.992 20.1094 102.582 20.2344 102.121 20.2344C101.66 20.2344 101.324 20.1289 101.113 19.918C100.91 19.6992 100.809 19.4922 100.809 19.2969C100.809 19.0391 100.852 18.8516 100.938 18.7344C101.109 18.8672 101.328 18.9336 101.594 18.9336C102.094 18.9336 102.418 18.6914 102.566 18.207V14.5508C102.566 14.207 102.492 13.957 102.344 13.8008C102.133 13.5586 101.73 13.293 101.137 13.0039C101.684 12.7539 102.031 12.5547 102.18 12.4062C102.438 12.1484 102.566 11.832 102.566 11.457V9.74609C102.566 9.08203 102.34 8.72266 101.887 8.66797C101.754 8.65234 101.586 8.64453 101.383 8.64453C101.18 8.64453 100.992 8.71094 100.82 8.84375C100.711 8.69531 100.656 8.54297 100.656 8.38672C100.656 8.22266 100.695 8.04297 100.773 7.84766C100.859 7.64453 100.984 7.45312 101.148 7.27344C101.562 6.85156 102.039 6.64062 102.578 6.64062C103.125 6.64062 103.578 6.72656 103.938 6.89844C104.367 6.41406 104.828 6.17188 105.32 6.17188C106.125 6.17188 106.527 6.59375 106.527 7.4375L106.516 8.41016C107.172 7.36328 108.086 6.67188 109.258 6.33594C109.641 6.22656 110.035 6.17188 110.441 6.17188C111.363 6.17188 112.129 6.39453 112.738 6.83984C113.348 7.28516 113.785 7.91797 114.051 8.73828C114.637 7.52734 115.586 6.73438 116.898 6.35938C117.328 6.23438 117.812 6.17188 118.352 6.17188C118.898 6.17188 119.41 6.27734 119.887 6.48828C120.371 6.69141 120.781 6.98438 121.117 7.36719C121.797 8.16406 122.137 9.26562 122.137 10.6719L122.102 11.457C122.102 11.832 122.184 12.1016 122.348 12.2656C122.59 12.5078 122.984 12.7539 123.531 13.0039C122.938 13.293 122.57 13.5156 122.43 13.6719C122.211 13.9141 122.102 14.207 122.102 14.5508V18.207C122.25 18.6914 122.574 18.9336 123.074 18.9336C123.262 18.9336 123.441 18.8672 123.613 18.7344C123.66 18.7969 123.711 18.8594 123.766 18.9219C123.828 18.9766 123.859 19.1016 123.859 19.2969C123.859 19.4922 123.754 19.6992 123.543 19.918C123.34 20.1289 123.012 20.2344 122.559 20.2344C122.113 20.2344 121.699 20.1094 121.316 19.8594C120.965 20.1094 120.57 20.2344 120.133 20.2344C119.703 20.2344 119.324 20.1172 118.996 19.8828C118.691 20.1172 118.348 20.2344 117.965 20.2344C117.59 20.2344 117.289 20.1367 117.062 19.9414C116.836 19.7461 116.723 19.4648 116.723 19.0977C116.723 18.9258 116.781 18.7891 116.898 18.6875C117.078 18.8281 117.258 18.8984 117.438 18.8984C117.781 18.8984 118.027 18.707 118.176 18.3242V11.3398C118.176 9.50391 117.508 8.58594 116.172 8.58594C115.789 8.58594 115.414 8.80859 115.047 9.25391C114.68 9.69141 114.441 10.2227 114.332 10.8477L114.297 18.3242C114.445 18.707 114.691 18.8984 115.035 18.8984C115.215 18.8984 115.395 18.8281 115.574 18.6875C115.691 18.7891 115.75 18.9766 115.75 19.25C115.75 19.5156 115.637 19.7461 115.41 19.9414C115.184 20.1367 114.879 20.2344 114.496 20.2344C114.113 20.2344 113.77 20.1172 113.465 19.8828C113.129 20.1172 112.746 20.2344 112.316 20.2344C111.895 20.2344 111.52 20.1172 111.191 19.8828C110.887 20.1172 110.543 20.2344 110.16 20.2344C109.785 20.2344 109.484 20.1367 109.258 19.9414C109.031 19.7461 108.918 19.4648 108.918 19.0977C108.918 18.9258 108.977 18.7891 109.094 18.6875C109.273 18.8281 109.453 18.8984 109.633 18.8984C109.977 18.8984 110.223 18.707 110.371 18.3242V11.3398C110.371 9.87891 110.016 9.00781 109.305 8.72656C109.078 8.63281 108.828 8.58594 108.555 8.58594C108.031 8.58594 107.578 8.8125 107.195 9.26562C106.836 9.6875 106.609 10.2188 106.516 10.8594L106.492 18.3242C106.641 18.707 106.887 18.8984 107.23 18.8984C107.41 18.8984 107.59 18.8281 107.77 18.6875C107.91 18.8047 107.98 18.9961 107.98 19.2617C107.98 19.5195 107.859 19.7461 107.617 19.9414C107.383 20.1367 107.07 20.2344 106.68 20.2344C106.297 20.2344 105.957 20.1211 105.66 19.8945C105.348 20.1211 104.977 20.2344 104.547 20.2344C104.117 20.2344 103.719 20.1094 103.352 19.8594ZM118.949 9.08984C119.184 9.66016 119.301 10.7734 119.301 12.4297V16.8945C119.691 16.7461 119.906 16.2344 119.945 15.3594C119.992 14.4844 120.016 13.7109 120.016 13.0391C120.016 12.3594 119.996 11.793 119.957 11.3398C119.918 10.8867 119.855 10.5078 119.77 10.2031C119.613 9.65625 119.34 9.28516 118.949 9.08984ZM111.145 9.08984C111.379 9.66016 111.496 10.7734 111.496 12.4297V16.8945C111.887 16.7461 112.102 16.2344 112.141 15.3594C112.188 14.4844 112.211 13.7109 112.211 13.0391C112.211 12.3594 112.191 11.793 112.152 11.3398C112.113 10.8867 112.051 10.5078 111.965 10.2031C111.809 9.65625 111.535 9.28516 111.145 9.08984ZM103.691 16.8945C104.059 16.6602 104.266 16.1719 104.312 15.4297C104.344 14.8672 104.359 14.3633 104.359 13.918V12.4297C104.359 11.2734 104.328 10.5312 104.266 10.2031C104.156 9.64062 103.965 9.26953 103.691 9.08984V9.85156C103.691 11.1719 103.66 11.9492 103.598 12.1836C103.543 12.4102 103.449 12.582 103.316 12.6992C103.191 12.8164 103.004 12.918 102.754 13.0039C103.223 13.168 103.488 13.3633 103.551 13.5898C103.645 13.9648 103.691 14.8125 103.691 16.1328V16.8945ZM127.398 19.7188C126.867 20.2266 126.355 20.4805 125.863 20.4805C125.59 20.4805 125.402 20.3789 125.301 20.1758C125.48 19.9961 125.57 19.8164 125.57 19.6367C125.57 19.457 125.543 19.3203 125.488 19.2266L125.336 18.957L125.523 19.3086C125.336 19.2227 125.191 19.0781 125.09 18.875C124.988 18.6719 124.938 18.4258 124.938 18.1367C124.938 17.8398 125.102 17.5039 125.43 17.1289C125.273 16.9102 125.195 16.668 125.195 16.4023C125.195 16.1367 125.238 15.918 125.324 15.7461C125.418 15.5664 125.535 15.4062 125.676 15.2656C125.988 14.9688 126.32 14.8203 126.672 14.8203C126.906 14.8203 127.074 14.9023 127.176 15.0664C126.965 15.293 126.859 15.6523 126.859 16.1445C126.859 16.6289 126.941 17.043 127.105 17.3867C127.277 17.7305 127.508 18.0234 127.797 18.2656C128.406 18.7812 129.156 19.0391 130.047 19.0391C131.039 19.0391 131.727 18.6758 132.109 17.9492C132.219 17.7305 132.273 17.5117 132.273 17.293C132.273 17.0664 132.223 16.8672 132.121 16.6953C132.02 16.5156 131.887 16.3438 131.723 16.1797C131.449 15.9141 131.031 15.6094 130.469 15.2656C129.93 14.8828 129.293 14.6914 128.559 14.6914C128.082 14.6914 127.762 14.7305 127.598 14.8086C127.699 14.5742 127.75 14.3398 127.75 14.1055C127.75 13.8711 127.594 13.6172 127.281 13.3438C126.969 13.0625 126.688 12.7812 126.438 12.5C126.195 12.2188 126 11.9375 125.852 11.6562C125.555 11.125 125.406 10.5625 125.406 9.96875C125.406 9.375 125.527 8.85156 125.77 8.39844C126.02 7.9375 126.367 7.54297 126.812 7.21484C127.742 6.51953 128.934 6.17188 130.387 6.17188C131.09 6.17188 131.57 6.20312 131.828 6.26562C132.094 6.32812 132.305 6.38672 132.461 6.44141C132.672 6.51953 132.93 6.55859 133.234 6.55859C133.539 6.55859 133.75 6.49219 133.867 6.35938C133.992 6.22656 134.055 6.10547 134.055 5.99609C134.055 5.87891 134.043 5.78906 134.02 5.72656C134.066 5.71094 134.137 5.70312 134.23 5.70312C134.324 5.70312 134.43 5.73047 134.547 5.78516C134.672 5.83984 134.781 5.91406 134.875 6.00781C135.062 6.21875 135.156 6.44531 135.156 6.6875C135.156 6.92188 135.109 7.10156 135.016 7.22656C135.234 7.42969 135.344 7.71875 135.344 8.09375C135.344 8.46875 135.188 8.78516 134.875 9.04297C134.945 9.18359 134.98 9.35547 134.98 9.55859C134.98 9.76172 134.871 9.95703 134.652 10.1445C134.434 10.332 134.227 10.4258 134.031 10.4258C133.695 10.4258 133.469 10.3828 133.352 10.2969C133.453 10.0469 133.504 9.77734 133.504 9.48828C133.504 9.19141 133.426 8.91016 133.27 8.64453C133.113 8.37891 132.914 8.16406 132.672 8C132.219 7.6875 131.68 7.53125 131.055 7.53125C130.266 7.53125 129.734 7.78125 129.461 8.28125C129.375 8.4375 129.332 8.60938 129.332 8.79688C129.332 8.97656 129.355 9.14453 129.402 9.30078C129.457 9.44922 129.543 9.60156 129.66 9.75781C129.887 10.0625 130.207 10.3516 130.621 10.625C131.16 10.9766 131.535 11.1523 131.746 11.1523C132.199 11.1523 132.594 11.043 132.93 10.8242C132.836 11.1992 132.789 11.4609 132.789 11.6094C132.789 11.8359 132.969 12.0977 133.328 12.3945C134.336 13.0898 135.023 13.7266 135.391 14.3047C135.742 14.8672 135.918 15.4922 135.918 16.1797C135.918 16.8672 135.766 17.457 135.461 17.9492C135.156 18.4336 134.742 18.8516 134.219 19.2031C133.133 19.9297 131.816 20.293 130.27 20.293C129.215 20.293 128.258 20.1016 127.398 19.7188ZM126.988 8.98438C126.762 9.09375 126.648 9.39844 126.648 9.89844C126.648 10.3906 126.809 10.8633 127.129 11.3164C127.449 11.7617 127.957 12.2656 128.652 12.8281C128.816 12.9531 128.898 13.0742 128.898 13.1914C128.898 13.3711 128.883 13.5156 128.852 13.625C128.945 13.6016 129.109 13.5781 129.344 13.5547C129.914 13.5 130.621 13.7656 131.465 14.3516C132.809 15.1797 133.48 16.0508 133.48 16.9648C133.48 17.3086 133.434 17.5664 133.34 17.7383C133.621 17.6836 133.836 17.4453 133.984 17.0234C134.023 16.8984 134.043 16.7695 134.043 16.6367C134.043 16.0039 133.699 15.3633 133.012 14.7148C132.332 14.0586 131.352 13.4258 130.07 12.8164C127.945 11.7383 126.918 10.4609 126.988 8.98438Z" fill="#5E5E5E"/>
</svg>
